<?xml version="1.0" standalone="no"?>
<!DOCTYPE svg PUBLIC "-//W3C//DTD SVG 20010904//EN"
 "http://www.w3.org/TR/2001/REC-SVG-20010904/DTD/svg10.dtd">
<svg version="1.0" xmlns="http://www.w3.org/2000/svg"
 width="900.000000pt" height="900.000000pt" viewBox="0 0 900.000000 900.000000"
 preserveAspectRatio="xMidYMid meet">
<metadata>
Created by potrace 1.14, written by Peter Selinger 2001-2017
</metadata>
<g transform="translate(0.000000,900.000000) scale(0.100000,-0.100000)"
fill="#000000" stroke="none">
<path d="M2 8098 c3 -856 6 -959 30 -876 5 21 6 21 7 -5 1 -21 -5 -30 -19 -34
-18 -5 -20 -14 -20 -100 0 -90 1 -94 20 -88 15 5 20 2 20 -10 0 -9 -9 -19 -20
-22 -16 -4 -20 -14 -20 -44 0 -41 14 -52 25 -19 3 11 13 20 21 20 22 0 17 -18
-15 -45 -24 -22 -29 -34 -30 -75 -1 -50 12 -67 24 -30 13 40 166 163 182 146
10 -9 -12 -36 -29 -36 -11 0 -53 -34 -99 -80 l-79 -80 0 -1325 c0 -1171 2
-1325 15 -1325 8 0 15 5 15 10 0 6 9 10 19 10 11 0 22 6 24 13 3 6 6 2 6 -11
1 -13 5 -21 11 -17 5 3 7 12 3 20 -4 12 3 15 32 15 20 0 34 -3 31 -8 -7 -11
77 -2 89 10 7 7 7 9 0 5 -6 -3 -26 -2 -45 3 -27 6 -14 8 55 9 50 0 115 -6 145
-14 30 -7 49 -14 43 -14 -7 -1 -13 -5 -13 -10 0 -6 12 -6 28 -2 33 8 72 3 72
-10 0 -5 8 -9 19 -9 10 0 30 -11 45 -25 15 -14 34 -25 43 -25 28 0 253 -244
253 -274 0 -2 -15 -3 -34 -2 -23 1 -42 9 -58 26 -25 28 -29 30 -58 30 -12 0
-20 7 -20 18 0 14 -2 14 -9 3 -7 -10 -4 -19 7 -28 9 -7 13 -13 9 -13 -5 0 -1
-7 7 -16 9 -8 20 -13 25 -9 5 3 12 -4 16 -15 3 -11 12 -20 20 -20 8 0 17 -9
20 -20 4 -11 17 -28 30 -36 25 -16 65 -76 65 -97 0 -6 -7 -1 -16 11 -18 26
-37 29 -32 5 2 -10 9 -17 14 -16 16 3 15 -40 -1 -64 -8 -12 -15 -34 -15 -48 0
-16 -4 -24 -11 -20 -6 4 -5 -2 3 -14 7 -12 21 -21 32 -21 15 0 16 -3 6 -15
-12 -14 -15 -14 -31 1 -15 14 -19 14 -19 3 -1 -10 -4 -9 -11 4 -5 9 -7 21 -4
27 3 5 -3 18 -15 30 -21 21 -26 40 -11 40 5 0 17 -7 25 -16 14 -13 16 -13 16
-1 0 14 -27 32 -42 29 -5 -1 -8 12 -8 28 0 22 -5 30 -18 30 -22 0 -65 38 -57
51 11 17 14 49 4 49 -5 0 -9 -4 -9 -10 0 -20 -21 -9 -58 32 -20 23 -69 67
-109 98 -40 32 -70 60 -67 63 3 3 3 11 -1 17 -6 9 -9 9 -15 0 -6 -10 -15 -9
-43 1 -37 13 -43 31 -7 22 11 -3 20 0 20 6 0 6 -7 11 -15 11 -9 0 -18 7 -21
15 -4 8 -10 13 -14 10 -5 -3 -11 -1 -15 4 -3 6 -26 13 -50 17 -30 4 -42 10
-38 18 4 6 -1 4 -11 -4 -10 -8 -39 -17 -65 -20 -29 -3 -45 -10 -44 -18 2 -7 0
-11 -5 -10 -15 4 -52 -14 -47 -23 4 -5 -1 -9 -9 -9 -9 0 -16 5 -16 11 0 6 -10
9 -22 7 -16 -2 -22 -9 -20 -21 2 -12 -4 -21 -17 -24 -20 -5 -21 -11 -21 -234
0 -211 1 -229 18 -229 9 0 32 -9 50 -20 17 -11 64 -27 102 -36 77 -17 83 -27
49 -73 -12 -16 -25 -49 -29 -72 -11 -58 13 -94 69 -103 26 -4 47 -15 61 -33
18 -23 23 -25 31 -13 8 12 12 12 16 2 3 -7 13 -21 23 -30 22 -20 11 -48 -14
-39 -8 3 -18 2 -21 -3 -4 -6 -15 -10 -26 -10 -29 0 -24 -44 9 -77 43 -43 59
-54 98 -68 l36 -12 -33 -32 c-30 -30 -36 -32 -78 -26 -25 4 -50 11 -55 16 -20
18 -26 8 -10 -16 11 -17 25 -25 45 -25 30 0 41 -23 16 -34 -9 -5 -9 -7 1 -12
6 -3 10 -10 7 -14 -3 -5 0 -12 7 -16 7 -4 10 -4 6 0 -3 4 1 16 10 27 37 43 88
89 98 89 6 0 19 9 29 20 19 21 51 28 40 9 -9 -13 34 -50 49 -43 6 3 -2 -6 -17
-20 -15 -14 -25 -26 -21 -26 4 0 -2 -9 -14 -20 -19 -18 -22 -32 -22 -89 0 -54
-4 -70 -16 -75 -21 -8 -10 -62 18 -93 12 -12 18 -29 15 -37 -4 -9 -2 -16 3
-16 6 0 10 9 10 19 0 11 6 21 12 24 7 2 1 8 -13 11 -28 8 -28 15 -8 124 8 41
14 52 29 52 15 0 20 -9 23 -43 l4 -42 1 43 c1 30 6 42 17 42 8 0 15 5 15 11 0
8 4 9 13 0 25 -20 26 1 1 26 -29 29 -29 29 -4 29 11 0 20 -5 20 -11 0 -5 4 -3
9 5 6 8 7 18 5 22 -3 4 0 9 5 9 6 1 17 2 24 3 6 1 11 7 10 14 -2 7 7 12 19 12
18 0 14 -7 -28 -45 -27 -25 -43 -45 -37 -45 6 0 16 -13 22 -30 16 -48 57 -39
130 27 21 20 43 31 55 29 12 -2 15 -1 9 1 -17 6 -16 18 2 33 9 8 15 8 15 2 0
-6 -6 -13 -12 -15 -8 -3 -6 -6 4 -6 9 -1 29 11 43 26 14 15 25 24 25 19 0 -12
48 54 56 76 3 9 13 19 21 23 13 4 14 3 4 -9 -11 -13 -9 -15 10 -11 27 5 56 31
46 41 -4 4 -13 2 -21 -5 -11 -9 -15 -8 -19 3 -4 9 -2 18 3 21 6 4 10 1 10 -6
0 -10 3 -10 12 -1 8 8 8 15 -2 27 -10 12 -10 19 -2 27 9 9 12 8 12 -5 0 -10 8
-17 20 -17 11 0 20 -4 20 -10 0 -5 7 -10 15 -10 8 0 15 -4 15 -10 0 -5 -4 -10
-9 -10 -14 0 -71 -53 -71 -66 0 -6 -7 -17 -15 -24 -14 -12 -21 -50 -9 -50 3 0
15 12 26 26 11 14 26 23 33 20 20 -7 26 5 12 22 -10 13 -9 15 6 9 13 -5 27 3
50 28 17 19 38 35 44 35 7 0 13 7 13 15 0 9 13 24 30 33 16 9 30 24 30 32 0 8
7 34 16 57 15 39 15 44 0 68 -15 23 -38 35 -35 18 1 -5 -1 -27 -6 -50 -5 -30
-11 -40 -22 -36 -11 4 -13 0 -7 -21 8 -34 -1 -33 -33 4 -27 33 -43 38 -43 15
0 -8 5 -15 10 -15 6 0 10 -7 10 -15 0 -8 -4 -15 -10 -15 -5 0 -10 4 -10 10 0
5 -7 7 -15 4 -8 -4 -15 -1 -15 5 0 6 -6 8 -14 5 -15 -6 -31 40 -20 58 8 13 10
36 12 129 l2 66 35 1 c19 1 35 -3 35 -8 0 -6 6 -10 13 -10 20 0 60 -49 53 -65
-3 -8 -1 -15 3 -15 5 0 11 5 13 11 5 15 100 -81 117 -118 7 -15 18 -39 25 -53
14 -29 2 -50 -24 -42 -8 2 0 -6 18 -17 17 -11 32 -29 32 -38 0 -16 -2 -16 -11
-3 -8 12 -9 10 -4 -8 5 -16 1 -30 -11 -43 -10 -11 -12 -19 -6 -19 18 0 14 -28
-6 -48 -10 -10 -17 -23 -15 -28 2 -5 -11 -24 -28 -42 -23 -23 -27 -32 -15 -32
9 0 16 5 16 10 0 6 6 10 14 10 15 0 30 27 27 48 -1 7 5 15 14 18 8 3 15 11 15
17 0 5 11 33 24 61 44 95 51 135 50 272 -1 104 2 131 12 131 9 0 14 -13 15
-36 l1 -36 7 30 c4 17 3 45 -2 64 -5 19 -7 49 -5 68 2 18 1 33 -3 33 -8 0 -5
67 4 76 11 11 8 62 -3 69 -5 3 -10 17 -10 31 0 13 -5 24 -11 24 -8 0 -9 14 -5
43 6 34 5 40 -5 30 -17 -17 -29 -16 -29 1 0 8 -8 17 -17 19 -17 4 -17 5 0 6
11 1 17 9 17 23 0 20 4 18 35 -17 20 -22 44 -57 53 -77 9 -21 20 -38 24 -38 5
0 8 -6 8 -14 0 -24 23 -24 69 0 24 13 48 21 52 18 5 -3 23 10 41 28 17 18 42
34 54 36 19 2 25 -4 33 -35 6 -21 11 -55 11 -75 0 -21 5 -38 10 -38 13 0 12 3
-5 125 -21 153 -72 315 -98 315 -6 0 -7 3 -4 7 4 3 -9 17 -28 30 -28 19 -34
29 -31 51 6 52 18 82 32 82 26 0 10 45 -32 90 -12 14 -30 42 -39 62 -19 48 -7
71 46 87 21 6 41 15 43 20 3 5 -7 26 -22 47 -21 31 -26 47 -22 74 5 35 6 35
50 32 l45 -2 -40 21 c-47 25 -65 45 -65 74 0 12 -13 48 -29 81 -54 111 -69
164 -61 219 4 28 13 64 19 80 12 30 13 30 30 10 9 -11 24 -24 33 -30 9 -5 47
-31 85 -56 37 -26 87 -57 110 -69 44 -24 65 -24 207 -1 67 11 82 8 89 -20 4
-16 -3 -26 -29 -41 -22 -13 -32 -24 -26 -30 15 -15 -10 -58 -33 -58 -17 0 -17
2 -5 10 8 5 11 10 5 10 -21 -1 -65 -49 -59 -65 5 -11 0 -18 -13 -21 -40 -11
-55 -74 -17 -74 8 0 14 -7 14 -16 0 -11 6 -15 19 -11 12 3 27 -4 40 -19 26
-30 35 -30 48 -1 10 21 10 21 17 -10 4 -18 12 -36 17 -39 6 -3 14 -17 19 -30
12 -31 40 -32 40 -1 0 13 -5 28 -11 34 -6 6 -9 23 -7 39 3 26 4 26 26 -18 12
-25 30 -52 39 -59 15 -13 16 -11 9 14 -3 15 -2 27 3 27 14 0 81 -112 81 -137
0 -8 5 -11 10 -8 6 3 28 -32 50 -79 22 -47 45 -88 50 -91 6 -3 10 -16 11 -28
0 -21 1 -21 8 -3 5 12 0 44 -11 79 -10 32 -18 68 -18 79 0 20 1 20 20 -2 11
-13 20 -31 20 -42 0 -31 35 -17 41 17 3 11 11 20 19 20 8 0 15 -9 16 -20 2
-52 5 -65 12 -65 5 0 13 12 19 28 11 27 11 27 12 -10 1 -21 -3 -38 -9 -38 -5
0 -10 -5 -10 -11 0 -5 4 -8 9 -5 4 3 13 -6 20 -20 14 -31 14 -37 1 -29 -5 3
-10 -4 -10 -16 0 -18 2 -19 15 -9 12 10 16 10 19 -1 2 -8 7 -22 10 -31 3 -11
1 -15 -8 -12 -14 5 -32 -13 -23 -22 3 -3 15 -6 28 -7 30 -3 75 -47 95 -95 8
-20 29 -52 47 -70 26 -27 39 -33 67 -31 19 2 36 -1 38 -5 3 -10 -77 -15 -83
-5 -3 4 -22 5 -42 3 -21 -3 -52 -6 -69 -7 -32 -2 -64 -22 -64 -39 0 -5 12 -7
26 -6 16 2 29 -3 32 -11 3 -10 -2 -11 -19 -6 -13 5 -39 7 -56 7 -29 -1 -33 2
-33 24 l0 25 -32 -18 -33 -17 30 -7 c17 -4 22 -7 13 -8 -10 0 -18 -5 -18 -11
0 -5 -6 -7 -14 -4 -10 4 -13 -3 -11 -28 1 -18 -2 -41 -7 -51 -8 -15 -6 -18 9
-17 41 5 47 1 27 -19 -12 -11 -21 -14 -26 -8 -4 6 -10 -1 -14 -16 -8 -35 1
-45 23 -25 29 25 108 37 276 42 l107 3 0 -48 c0 -26 -4 -59 -10 -73 -7 -21 -6
-26 5 -26 19 0 19 -9 -2 -32 -15 -17 -15 -18 5 -18 34 0 26 -18 -10 -25 -18
-3 -42 -10 -53 -14 -11 -5 -40 -14 -65 -21 -43 -11 -96 -32 -132 -51 -24 -12
-31 -11 -22 4 4 6 -3 2 -15 -10 -12 -13 -28 -23 -35 -23 -17 0 -124 -56 -151
-79 -58 -50 -149 -92 -130 -61 3 6 2 10 -4 10 -5 0 -13 -10 -16 -22 -10 -34
-94 -105 -145 -123 -66 -23 -112 -58 -224 -174 -149 -154 -227 -242 -267 -302
-13 -20 -50 -76 -83 -125 -32 -49 -62 -90 -67 -92 -5 -2 -9 -13 -9 -25 0 -16
-3 -18 -12 -9 -7 7 -17 12 -23 12 -5 0 -5 -4 2 -8 7 -4 10 -17 6 -30 -5 -22
-23 -31 -23 -12 0 6 -11 0 -24 -12 -28 -28 -25 -39 4 -13 15 14 20 15 20 4 0
-16 -94 -109 -110 -109 -6 0 -8 -4 -5 -10 3 -5 1 -10 -5 -10 -6 0 -8 -5 -5
-11 16 -25 -110 -121 -164 -124 -21 -2 -36 -8 -36 -15 0 -7 -9 -18 -20 -24
-51 -28 -143 -98 -172 -130 -18 -20 -37 -36 -43 -36 -5 0 -10 -6 -10 -12 0 -7
-14 -22 -30 -33 -16 -11 -30 -27 -30 -36 0 -9 -11 -27 -25 -40 -13 -13 -25
-32 -25 -41 0 -10 -4 -18 -10 -18 -5 0 -10 -6 -10 -14 0 -20 -132 -166 -150
-166 -6 0 -10 -11 -10 -25 0 -22 -8 -28 -36 -24 -13 2 -23 -26 -13 -37 13 -16
0 -44 -21 -44 -15 0 -19 12 -25 70 -6 60 -9 69 -22 59 -7 -7 -12 -18 -9 -25 3
-7 1 -16 -5 -20 -6 -3 -8 -12 -5 -20 12 -31 -6 -76 -35 -86 -16 -5 -26 -15
-23 -20 4 -7 -8 -9 -35 -6 -22 2 -41 0 -41 -4 0 -5 7 -8 16 -8 8 0 12 -5 9
-11 -4 -6 -13 -8 -21 -5 -8 3 -14 2 -14 -3 0 -5 -8 -11 -17 -15 -18 -5 -53
-26 -63 -36 -3 -3 -18 -11 -34 -18 -17 -8 -67 -38 -113 -69 l-83 -56 0 -219 0
-218 31 0 c20 0 28 -4 23 -12 -5 -7 -3 -8 7 -3 20 13 79 17 79 6 0 -11 -55
-31 -86 -31 -43 0 -54 -10 -54 -50 0 -40 10 -49 58 -51 19 -1 15 -4 -13 -8
l-40 -6 -3 -157 -3 -158 225 0 225 0 4 22 4 23 2 -22 c1 -15 7 -23 20 -23 14
0 18 5 14 20 -3 11 0 20 6 20 6 0 11 -9 11 -20 0 -20 7 -20 1453 -20 1274 1
1450 2 1433 15 -11 8 -16 18 -13 22 4 3 7 3 7 -2 0 -4 8 -1 19 9 23 21 51 11
51 -20 l0 -24 615 0 c372 0 615 4 615 9 0 5 -6 16 -14 23 -20 20 -46 74 -46
95 0 14 3 13 13 -6 13 -26 37 -40 37 -22 0 6 -5 11 -10 11 -6 0 -9 3 -8 8 2 4
-4 27 -12 51 -11 34 -12 45 -2 49 17 5 15 22 -3 22 -8 0 -15 9 -15 20 0 11 -4
20 -8 20 -4 0 -14 21 -22 48 -12 42 -45 130 -69 187 -5 11 -19 46 -31 78 l-22
57 26 35 c33 43 27 45 -15 4 -23 -22 -37 -29 -54 -25 -20 5 -28 -2 -57 -51
-35 -59 -37 -63 -81 -130 -15 -24 -27 -45 -27 -48 0 -9 -99 -153 -107 -157
-13 -7 -94 17 -87 25 4 4 0 7 -9 7 -10 0 -25 4 -35 10 -9 5 -42 21 -73 35 -31
14 -86 53 -124 89 -38 36 -73 62 -77 60 -4 -3 -8 0 -8 6 0 8 -13 10 -42 5 -39
-6 -41 -5 -19 7 14 7 26 20 28 28 4 12 2 12 -5 2 -10 -15 -61 -7 -75 12 -6 7
-7 4 -3 -6 3 -12 0 -18 -9 -18 -8 0 -15 5 -15 11 0 6 -9 8 -23 3 -37 -12 -119
-7 -128 7 -6 11 -9 9 -15 -5 -4 -10 -10 -14 -13 -9 -3 5 -18 16 -33 25 -19 13
-25 23 -21 39 4 16 2 20 -8 17 -20 -7 -49 10 -49 28 0 8 4 13 9 10 14 -9 32
19 28 43 -4 28 -28 51 -34 34 -3 -7 -9 -13 -14 -13 -5 0 -4 9 3 20 7 11 21 20
30 20 20 0 24 15 8 25 -5 3 -10 15 -10 26 0 17 -3 18 -20 9 -18 -10 -19 -8
-16 19 2 23 -4 39 -26 63 -58 64 -95 114 -123 163 -25 44 -133 208 -262 398
-89 129 -113 215 -111 387 0 63 3 103 5 88 2 -16 8 -28 12 -28 4 0 20 40 34
88 24 77 30 128 47 368 18 259 29 360 50 474 5 25 16 123 26 217 10 95 21 167
25 160 4 -6 10 -49 13 -93 4 -45 14 -106 22 -135 14 -49 27 -103 54 -224 11
-49 18 -83 32 -160 26 -141 76 -305 114 -375 53 -97 138 -230 146 -230 5 0 9
-10 8 -22 -4 -42 -1 -55 9 -39 12 19 32 -18 24 -47 -3 -14 -1 -22 7 -22 7 0
10 7 6 16 -5 14 -4 15 9 4 9 -7 13 -21 9 -35 -3 -13 0 -26 7 -31 9 -5 10 -2 6
10 -14 37 15 2 35 -42 12 -26 30 -56 40 -66 12 -13 17 -31 14 -50 -2 -17 -1
-23 1 -13 4 14 7 16 19 6 8 -6 14 -18 14 -26 0 -7 7 -16 15 -19 8 -4 15 -10
15 -16 0 -5 7 -16 15 -24 16 -17 21 -39 6 -29 -5 3 -13 0 -17 -6 -5 -9 1 -10
20 -5 24 6 27 4 21 -14 -5 -14 -3 -18 8 -15 14 6 37 -33 37 -63 0 -10 5 -23
11 -29 15 -15 1 -56 -16 -49 -9 3 -12 0 -8 -10 7 -19 22 -18 45 3 24 21 31 12
39 -50 5 -41 8 -47 14 -29 4 12 12 22 17 22 5 0 6 5 2 11 -4 7 -1 10 6 7 20
-6 24 -28 6 -28 -11 0 -14 -9 -12 -37 5 -46 -1 -58 -20 -42 -10 8 -14 8 -14 0
0 -6 5 -11 10 -11 6 0 10 -9 10 -20 0 -28 -55 -28 -70 0 -6 11 -18 20 -26 20
-10 0 -14 6 -10 15 3 8 1 15 -4 15 -6 0 -10 7 -10 15 0 8 -4 15 -10 15 -5 0
-10 -10 -10 -22 0 -21 0 -21 -15 -2 -8 10 -15 16 -15 12 0 -10 54 -113 62
-116 5 -2 8 -8 8 -14 0 -5 11 -24 25 -42 14 -18 25 -37 25 -43 0 -5 28 -17 63
-27 81 -23 140 -44 202 -72 85 -38 128 -56 190 -79 33 -12 82 -36 109 -54 58
-36 91 -38 162 -12 73 26 145 36 154 20 6 -9 22 -2 58 25 28 20 82 48 120 62
50 19 73 33 81 51 6 13 16 21 21 18 6 -4 8 -11 4 -16 -6 -10 28 -5 76 11 14 5
42 11 63 15 28 4 40 13 47 30 5 14 30 66 55 118 25 51 45 98 45 105 0 7 3 12
8 12 4 0 12 10 17 23 23 49 71 133 82 145 7 7 13 18 13 24 0 5 9 23 21 39 13
18 18 37 15 51 -3 13 -3 17 0 11 3 -7 10 -13 15 -13 6 0 5 9 -1 21 -11 20 -12
20 -25 2 -14 -17 -14 -17 -15 3 0 29 -24 49 -38 31 -7 -8 -7 -18 -2 -27 15
-23 12 -50 -5 -50 -18 0 -19 12 -3 28 9 9 8 12 -5 12 -10 0 -25 -9 -34 -19 -9
-11 -20 -18 -25 -15 -4 3 -8 -1 -8 -8 0 -7 9 -19 20 -26 11 -7 20 -18 20 -25
0 -9 -3 -8 -9 2 -7 11 -9 11 -14 0 -4 -10 -6 -10 -6 -1 -2 21 -29 13 -37 -10
-5 -13 -7 -26 -6 -30 3 -12 -12 -10 -25 3 -6 6 -16 8 -22 5 -14 -9 -8 -79 7
-84 19 -6 42 18 42 44 0 29 14 38 30 19 10 -13 9 -19 -6 -36 -17 -19 -17 -20
4 -26 24 -6 26 -11 12 -33 -8 -13 -10 -12 -10 3 0 23 -21 22 -47 -3 -22 -20
-34 -15 -45 20 -4 10 -8 6 -13 -12 -4 -16 -10 -28 -15 -28 -4 0 -15 -18 -25
-39 -15 -35 -20 -38 -36 -28 -30 19 -30 34 -2 85 15 26 31 56 37 67 21 39 91
124 103 125 7 0 10 6 8 13 -3 6 20 39 50 71 30 33 55 66 55 73 0 7 5 13 10 13
6 0 10 -4 10 -10 0 -5 5 -10 11 -10 8 0 7 5 -2 16 -8 10 -9 18 -3 22 6 4 17
17 26 30 8 12 32 40 52 62 20 21 36 44 36 50 0 9 26 47 77 115 5 6 21 28 38
50 16 22 33 42 37 43 4 2 8 7 8 11 0 4 28 50 63 102 34 52 76 117 93 144 41
67 164 322 164 341 0 3 6 20 14 37 23 52 31 101 61 367 9 74 18 159 22 188 3
29 10 55 14 58 5 3 9 26 10 52 l1 47 9 -35 c15 -60 30 -358 18 -362 -5 -2 -9
-40 -10 -85 -1 -46 -4 -81 -8 -79 -3 2 -7 -8 -7 -22 -3 -73 -13 -127 -23 -130
-6 -2 -11 -12 -11 -22 0 -10 -5 -20 -11 -22 -7 -2 -7 -11 0 -28 5 -14 10 -19
10 -12 1 6 6 12 11 12 13 0 13 -47 0 -55 -6 -3 -10 -19 -10 -35 0 -16 -6 -33
-14 -37 -19 -12 -38 -51 -27 -58 5 -3 11 5 13 17 4 30 24 34 32 6 5 -21 8 -19
31 22 56 99 70 162 81 372 9 183 23 148 49 -127 8 -82 15 -184 15 -225 1 -49
6 -82 15 -94 22 -28 52 -131 66 -223 10 -65 10 -105 0 -195 -7 -62 -14 -124
-17 -138 -4 -19 -3 -22 5 -10 20 28 21 -12 7 -185 -12 -154 -17 -179 -50 -264
-61 -158 -144 -290 -295 -471 -123 -147 -234 -258 -310 -309 -33 -23 -64 -41
-68 -41 -4 0 -14 -4 -22 -9 -11 -7 -10 -13 4 -35 20 -31 25 -120 6 -139 -9 -9
-14 -9 -20 2 -6 9 -18 12 -35 7 -14 -3 -37 -9 -50 -12 -18 -5 -33 2 -60 28
-30 27 -37 41 -39 75 -2 41 -10 53 -22 34 -3 -5 -19 -12 -35 -16 -17 -4 -30
-10 -30 -13 0 -9 -65 -32 -108 -39 -25 -4 -32 -2 -32 11 0 9 -5 16 -10 16 -7
0 -7 -6 0 -19 15 -28 13 -31 -17 -31 -16 0 -45 -5 -66 -11 -22 -6 -41 -8 -44
-6 -3 3 -6 39 -8 80 -4 87 8 104 85 127 25 7 92 28 149 46 57 19 110 34 118
34 28 0 215 64 238 81 6 4 41 23 79 43 64 33 156 100 164 118 2 5 9 8 16 8 30
0 152 119 220 214 55 78 141 254 161 331 23 88 57 285 52 304 -3 11 -5 10 -6
-5 0 -11 -10 -39 -21 -62 -11 -22 -20 -47 -20 -54 0 -27 -81 -224 -137 -333
-20 -38 -61 -108 -92 -154 -31 -46 -70 -104 -87 -130 -17 -25 -38 -52 -47 -60
-10 -7 -17 -20 -17 -27 0 -8 -4 -14 -8 -14 -5 0 -19 -9 -32 -20 -13 -11 -29
-20 -36 -20 -7 0 -14 -4 -16 -9 -6 -19 -155 -98 -233 -125 -44 -15 -94 -34
-112 -42 -17 -8 -38 -14 -47 -14 -15 0 -15 3 -1 30 9 17 20 30 25 30 6 0 10 4
10 9 0 6 -44 -13 -97 -40 -54 -27 -141 -67 -193 -88 -57 -24 -102 -49 -114
-64 -22 -30 -35 -150 -17 -171 9 -11 6 -18 -15 -35 -15 -12 -31 -21 -36 -21
-5 0 -28 -9 -50 -20 -23 -11 -48 -20 -55 -20 -7 0 -13 -4 -13 -9 0 -5 -6 -11
-12 -14 -7 -2 1 -2 17 1 17 2 34 8 40 13 16 16 25 10 16 -13 -4 -13 -4 -36 0
-52 5 -16 11 -70 14 -120 4 -50 8 -101 11 -113 l4 -23 218 0 218 0 1 36 c1 19
9 44 19 55 19 21 43 27 26 7 -16 -20 -17 -51 -4 -75 l13 -23 1844 0 1845 0 0
810 0 810 -21 0 c-17 0 -20 -5 -16 -26 3 -16 1 -22 -5 -16 -16 16 -4 47 20 50
26 4 29 29 5 49 -10 8 -13 12 -7 9 7 -3 15 1 18 10 9 22 8 23 -14 17 -13 -4
-20 -14 -20 -32 -1 -24 -1 -25 -12 -6 -20 34 -42 46 -52 27 -6 -10 -5 -17 2
-20 6 -2 9 -9 6 -17 -3 -7 -1 -23 6 -34 9 -17 8 -21 -5 -21 -9 0 -13 -4 -10
-10 9 -14 -9 -12 -24 3 -10 10 -11 9 -6 -6 10 -26 -14 -21 -25 6 -8 19 -9 19
-9 3 -1 -18 -2 -18 -19 -3 -19 18 -83 23 -123 10 -33 -11 -73 -43 -84 -68 -8
-19 -8 -19 -12 -1 -3 10 0 23 6 29 7 7 5 14 -7 23 -26 20 -29 18 -29 -36 -1
-28 3 -50 7 -50 4 0 6 -10 2 -22 l-5 -22 -8 22 c-8 20 -12 69 -23 262 -2 36
-9 83 -15 105 -6 22 -11 57 -11 78 0 46 -15 78 -34 71 -8 -3 -17 0 -21 6 -3 6
-3 10 2 9 22 -4 34 2 26 13 -4 7 -9 22 -10 33 -2 11 -10 25 -18 31 -8 6 -15
21 -15 33 0 12 -6 21 -15 21 -8 0 -15 9 -15 20 0 11 -6 19 -12 18 -7 -2 -12 2
-11 8 1 6 -10 25 -25 41 -15 17 -45 53 -67 79 -22 27 -56 65 -75 85 -67 69
-130 139 -130 144 0 3 -9 15 -20 27 -23 25 -50 80 -50 101 0 23 19 32 75 34
28 1 71 4 98 5 26 2 47 0 47 -4 0 -5 6 -8 14 -8 7 0 19 -7 26 -15 7 -8 21 -15
32 -15 10 0 32 -14 48 -30 16 -17 34 -30 39 -30 6 0 15 -8 20 -17 5 -10 28
-29 50 -43 36 -22 41 -29 36 -52 -7 -30 20 -52 45 -38 11 6 29 -5 65 -41 27
-27 54 -49 59 -49 5 0 2 -8 -8 -19 -16 -17 -15 -20 16 -58 18 -22 47 -65 65
-94 26 -44 32 -50 33 -30 0 14 -9 34 -19 45 -10 12 -28 37 -39 57 -11 20 -26
46 -34 58 -10 16 -10 23 -1 29 7 5 -8 29 -47 72 -81 90 -84 93 -109 110 -13 8
-32 22 -42 31 -11 9 -35 27 -54 40 -19 13 -35 30 -35 38 0 8 -3 12 -6 8 -7 -7
-61 19 -82 39 -7 8 -18 14 -23 14 -5 0 -9 5 -9 11 0 6 9 9 19 6 12 -3 22 1 25
10 3 8 2 12 -2 9 -5 -3 -20 6 -33 18 -14 13 -35 27 -47 30 -12 4 -22 12 -22
17 0 5 -6 9 -13 9 -7 0 -28 8 -47 19 -44 23 -130 49 -192 56 -26 4 -50 10 -53
15 -6 10 126 1 140 -10 16 -12 94 -19 101 -9 8 14 24 11 18 -4 -3 -9 10 -18
38 -26 24 -7 51 -17 61 -23 27 -14 33 -1 11 23 -10 11 -26 18 -36 16 -21 -6
-24 11 -3 19 7 3 29 -5 47 -18 18 -13 55 -35 83 -48 27 -14 58 -33 69 -42 11
-10 26 -18 33 -18 7 0 13 -4 13 -10 0 -5 19 -22 42 -36 42 -27 209 -191 238
-234 8 -13 25 -35 38 -50 12 -15 22 -33 22 -39 0 -6 3 -11 8 -11 9 0 92 -105
92 -117 0 -10 56 -73 64 -73 3 0 6 55 6 123 0 124 -12 182 -37 173 -7 -3 -15
3 -18 13 -3 11 -20 35 -38 54 -18 19 -40 46 -51 61 -10 14 -32 40 -48 58 -104
114 -122 130 -237 205 -30 20 -65 47 -78 61 -13 14 -23 22 -23 18 0 -9 -143
66 -148 77 -2 4 -12 7 -22 7 -10 0 -20 3 -22 8 -1 4 -27 18 -55 31 -29 14 -53
28 -53 33 0 5 -4 6 -10 3 -5 -3 -29 3 -52 14 -24 11 -41 21 -38 21 29 7 39 7
35 0 -5 -8 47 -22 54 -14 3 2 -10 16 -28 31 -23 19 -28 29 -19 35 21 13 48 9
48 -8 0 -11 6 -13 19 -9 11 3 26 -1 35 -10 9 -9 20 -14 25 -10 5 3 12 1 15 -4
3 -5 43 -27 89 -49 45 -22 89 -47 96 -56 7 -9 22 -16 32 -16 11 0 19 -4 19 -9
0 -8 94 -82 129 -101 11 -5 23 -20 26 -31 6 -17 9 -19 16 -8 6 11 15 7 39 -16
16 -16 30 -34 30 -41 0 -7 8 -15 17 -18 10 -3 34 -19 53 -36 30 -26 37 -28 46
-15 6 8 14 15 18 15 9 0 3 -24 -9 -33 -5 -4 2 -5 18 -3 15 3 27 0 27 -5 0 -5
6 -9 13 -9 18 0 49 -34 40 -43 -3 -4 -1 -7 5 -7 5 0 17 -3 26 -6 14 -5 16 10
16 128 l0 135 -56 23 c-77 33 -108 63 -101 100 4 18 0 36 -11 52 -18 24 -24
34 -68 108 -15 25 -35 55 -46 66 -13 14 -16 24 -9 29 6 3 11 19 11 35 0 15 4
30 10 32 5 1 12 35 16 73 4 39 11 73 16 76 6 4 3 20 -7 39 -9 17 -15 34 -12
36 2 2 20 -3 40 -11 35 -15 37 -14 37 5 0 11 5 20 10 20 6 0 10 -4 10 -10 0
-5 10 -10 23 -11 21 -1 19 -2 -22 -15 -11 -3 -11 -7 -1 -19 10 -12 9 -15 -6
-15 -28 0 -3 -18 31 -22 30 -3 30 -3 26 41 -3 38 -1 43 14 37 9 -3 24 -6 33
-6 15 0 15 -2 2 -10 -13 -8 -12 -10 3 -10 9 0 17 5 17 10 0 6 9 10 20 10 20 0
20 7 20 283 l0 282 -46 19 c-35 14 -50 27 -60 52 -14 34 -28 42 -39 24 -13
-21 -51 -8 -139 44 -99 59 -129 86 -145 129 -10 26 -14 27 -48 21 -21 -4 -43
-11 -49 -15 -16 -13 -113 9 -145 32 -15 10 -37 40 -49 65 -32 68 -52 83 -146
104 -37 8 -54 18 -66 38 -36 61 -150 171 -206 199 -85 43 -212 74 -314 77 -20
1 -34 4 -31 9 2 4 -6 11 -19 16 -13 5 -43 34 -67 65 -24 31 -45 56 -46 56 -2
0 -1 -9 2 -20 4 -14 0 -20 -12 -20 -12 0 -15 -5 -10 -19 3 -11 1 -22 -5 -26
-5 -3 -10 -1 -10 4 0 6 -4 11 -10 11 -5 0 -10 -9 -10 -21 0 -13 4 -18 13 -13
6 4 2 -4 -10 -17 -17 -17 -26 -20 -34 -12 -9 9 -15 8 -26 -3 -8 -7 -12 -18 -8
-23 3 -5 1 -12 -5 -16 -5 -3 -10 1 -10 9 0 12 -10 13 -54 9 -29 -3 -61 -1 -71
4 -14 8 -12 12 17 24 42 17 72 44 63 58 -11 19 -95 52 -116 46 -27 -9 -24 11
6 31 30 20 32 34 4 34 -11 0 -17 5 -14 10 3 6 26 10 51 10 24 0 44 5 44 10 0
6 -34 10 -82 10 -79 0 -81 1 -59 16 16 11 50 18 108 20 47 1 88 5 91 8 3 4 -3
13 -14 21 -42 33 -102 56 -161 62 -46 4 -62 10 -66 23 -6 25 19 93 40 107 37
25 83 65 83 72 0 3 -14 12 -30 19 -39 18 -98 8 -141 -24 -54 -40 -62 -34 -54
41 7 63 7 65 -19 75 -22 8 -32 6 -57 -12 -17 -13 -39 -37 -50 -55 -20 -33 -39
-43 -39 -22 0 6 9 22 20 37 15 18 17 28 9 33 -17 10 0 31 21 24 13 -4 20 0 25
15 3 11 11 20 16 20 5 0 20 10 32 21 12 12 45 37 74 55 66 43 75 60 58 101
-21 50 -45 57 -197 58 -75 0 -140 3 -144 7 -11 12 -7 68 6 84 7 7 10 19 7 26
-2 7 1 19 9 25 7 7 14 8 16 3 2 -4 17 -11 33 -15 l30 -7 -31 29 c-42 38 -48
59 -23 84 24 24 46 20 109 -23 38 -26 42 -27 24 -7 -32 35 -46 67 -34 74 18
11 10 58 -15 92 -18 23 -39 36 -71 44 -24 6 -46 14 -48 18 -3 4 9 28 25 54 33
53 36 72 14 81 -13 4 -14 10 -5 26 9 18 8 20 -15 20 -15 0 -28 -7 -33 -17 -5
-14 -8 -12 -13 12 -4 17 -7 51 -8 78 -1 48 -15 63 -26 27 -6 -20 -35 -29 -35
-11 0 5 -6 16 -13 23 -7 7 -23 33 -36 58 -13 24 -33 57 -45 72 -11 15 -34 47
-49 72 -23 37 -26 49 -17 66 6 11 16 20 22 20 6 0 8 11 4 30 -4 21 -2 29 5 24
17 -10 27 14 22 55 -6 44 -44 87 -101 113 -41 18 -42 20 -27 41 8 12 15 27 15
34 0 17 -27 17 -33 1 -4 -10 -6 -10 -6 0 -1 6 -10 12 -21 12 -15 0 -20 7 -20
28 0 19 -14 41 -50 76 -49 48 -60 66 -40 66 6 0 10 7 10 15 0 9 -9 15 -23 15
-14 0 -40 15 -60 35 -37 36 -42 52 -37 133 1 18 -3 32 -10 32 -6 0 -8 5 -5 10
11 18 -16 41 -38 34 -13 -4 -17 -2 -12 5 4 7 1 19 -6 27 -7 9 -14 26 -16 37
-2 12 -10 27 -18 33 -8 6 -15 15 -15 20 0 5 -13 24 -30 42 -26 29 -33 32 -70
26 l-40 -7 0 51 c0 27 -7 63 -15 78 -13 25 -20 26 -16 2 0 -5 -3 -8 -9 -8 -5
0 -13 18 -16 40 -8 50 -57 93 -153 138 -73 34 -99 29 -97 -19 1 -16 4 -29 9
-29 4 0 7 -4 7 -9 0 -5 -33 -12 -72 -16 -40 -4 -81 -11 -90 -16 -22 -12 -23
-37 -3 -59 12 -13 13 -23 4 -48 -12 -36 -24 -39 -57 -16 -25 17 -66 15 -160
-7 -50 -12 -59 -12 -115 10 -92 34 -151 42 -264 35 -84 -5 -107 -4 -127 9 -13
9 -33 13 -44 10 -12 -3 -35 2 -53 11 -44 22 -54 21 -116 -15 -74 -42 -154 -59
-276 -57 -124 1 -150 -8 -238 -89 -88 -81 -149 -127 -157 -118 -4 3 -12 21
-18 38 -6 18 -15 32 -19 32 -5 0 -13 -25 -19 -55 -9 -44 -21 -65 -57 -102 -32
-33 -49 -62 -58 -96 -12 -50 -44 -88 -91 -112 -33 -17 -200 -194 -222 -235
-10 -18 -54 -66 -98 -106 -44 -40 -80 -79 -80 -86 0 -7 -4 -13 -8 -13 -4 0
-14 -16 -21 -35 -7 -20 -23 -43 -37 -51 -13 -9 -24 -25 -24 -35 0 -11 -4 -19
-10 -19 -5 0 -10 7 -10 16 0 9 -7 14 -17 12 -12 -2 -21 -18 -27 -43 -18 -81
-38 -125 -57 -125 -23 0 -24 -7 -4 -27 17 -16 14 -34 -13 -93 -8 -19 -19 -53
-24 -75 -5 -22 -10 -49 -13 -60 -49 -236 -56 -294 -56 -460 1 -93 5 -226 11
-295 15 -185 29 -520 23 -536 -3 -8 -9 -14 -13 -14 -14 0 -80 -66 -80 -79 0
-7 8 -10 18 -7 9 3 28 0 42 -7 21 -11 27 -11 37 2 11 13 12 0 7 -69 -4 -47 -8
-87 -10 -89 -3 -3 -10 2 -17 11 -24 29 -75 58 -104 58 -16 0 -34 5 -41 12 -10
10 -16 9 -28 -4 -14 -14 -19 -14 -54 3 -22 11 -46 19 -54 19 -31 0 -95 32
-110 55 -15 23 -14 27 9 61 28 41 30 50 15 59 -15 9 -59 100 -76 158 -8 26
-13 68 -12 94 3 39 8 49 30 62 33 19 34 25 8 75 -17 30 -18 41 -9 52 9 11 8
19 -6 34 -14 16 -15 22 -5 35 10 12 8 25 -10 69 -21 49 -22 58 -9 88 7 18 19
39 26 46 18 19 16 49 -6 96 -10 23 -21 56 -25 74 l-6 33 65 -3 c41 -1 69 2 77
10 6 6 18 12 26 12 7 0 21 7 30 16 15 15 13 16 -16 9 -27 -6 -31 -4 -25 10 5
14 14 16 49 11 32 -4 43 -2 48 9 3 9 -1 15 -10 15 -10 0 -14 6 -10 15 5 15
-11 19 -61 15 -48 -3 -47 15 1 20 l48 5 -24 26 c-14 15 -28 34 -31 43 -5 13
-11 14 -31 5 -35 -16 -89 -3 -116 28 -15 18 -24 43 -27 77 -2 28 -6 65 -9 81
-2 17 -4 40 -4 53 0 18 -4 22 -19 17 -21 -6 -46 18 -36 35 10 16 -14 71 -42
97 -13 12 -25 32 -27 46 -2 22 -91 167 -103 167 -3 0 -3 -17 -1 -38 3 -34 1
-38 -15 -34 -12 3 -20 -2 -23 -16 -4 -14 -11 -18 -26 -14 -11 2 -24 -1 -28 -8
-6 -10 -15 -6 -34 16 -14 16 -26 34 -26 41 0 6 -4 14 -8 17 -5 3 -6 -8 -4 -24
3 -19 -2 -36 -15 -50 -24 -25 -28 -22 -73 78 -18 39 -38 73 -44 74 -52 7 -85
26 -92 53 -5 19 2 36 32 75 21 27 44 50 51 50 7 0 13 8 13 18 0 22 156 176
189 187 16 5 28 2 39 -9 14 -14 17 -13 26 6 6 11 27 26 46 32 24 8 36 18 38
34 2 16 10 22 27 22 17 0 25 6 27 22 4 25 61 60 92 56 12 -1 45 12 72 30 28
17 54 32 57 32 4 0 13 -14 20 -32 l13 -32 14 35 c21 53 40 71 69 64 20 -4 28
-1 36 17 11 23 107 78 137 78 10 0 18 7 18 15 0 9 9 19 21 23 11 5 20 11 20
15 -3 21 0 27 14 27 9 0 12 6 9 15 -4 8 1 17 9 21 9 3 25 24 37 46 17 32 18
43 8 49 -9 6 -4 11 15 18 23 9 26 14 18 30 -6 10 -7 21 -4 25 4 4 -3 9 -15 13
-27 7 -27 8 -2 35 11 12 20 28 20 35 0 7 4 13 10 13 5 0 14 19 20 43 6 23 15
51 19 62 14 34 31 91 31 103 0 7 -8 12 -17 12 -11 0 -14 3 -7 8 5 4 16 21 22
37 7 17 25 45 40 63 l27 33 80 -20 c222 -55 434 -41 650 41 75 29 114 48 245
121 147 81 288 211 332 307 l22 47 73 6 c49 4 86 13 114 29 l41 23 -347 3
c-280 2 -351 0 -364 -11 -72 -61 -194 -107 -283 -107 -46 0 -48 1 -48 29 0 32
34 61 72 61 13 1 34 7 48 15 22 12 -213 14 -1798 15 l-1822 0 2 -902z m3948
841 c0 -25 -61 -89 -84 -89 -25 0 -19 13 25 64 45 51 59 57 59 25z m181 -59
c48 -26 0 -117 -89 -170 -29 -17 -58 -41 -65 -51 -21 -35 -106 -91 -128 -84
-27 9 -24 27 8 50 62 45 131 118 178 189 51 77 61 84 96 66z m-931 -75 c0 -8
-4 -15 -9 -15 -5 0 -11 7 -15 15 -3 9 0 15 9 15 8 0 15 -7 15 -15z m-202 -79
c3 -12 -1 -17 -10 -14 -7 3 -15 13 -16 22 -3 12 1 17 10 14 7 -3 15 -13 16
-22z m642 -39 c0 -53 -220 -59 -315 -8 -29 15 -24 16 142 19 142 2 173 0 173
-11z m-450 -47 c53 -18 126 -34 192 -41 59 -7 105 -15 103 -19 -14 -23 -187
-13 -290 16 -56 16 -115 49 -115 64 0 15 18 12 110 -20z m368 -57 c-10 -2 -28
-2 -40 0 -13 2 -5 4 17 4 22 1 32 -1 23 -4z m-358 -59 c67 -19 106 -45 97 -68
-15 -38 -186 5 -242 60 -37 37 25 40 145 8z m2435 -434 c3 -6 -1 -7 -9 -4 -18
7 -21 14 -7 14 6 0 13 -4 16 -10z m142 -142 c-3 -8 -6 -5 -6 6 -1 11 2 17 5
13 3 -3 4 -12 1 -19z m160 -274 c-3 -3 -12 -4 -19 -1 -8 3 -5 6 6 6 11 1 17
-2 13 -5z m35 -26 c-9 -9 -15 -9 -24 0 -9 9 -7 12 12 12 19 0 21 -3 12 -12z
m-1302 -308 c134 -11 170 -16 265 -35 39 -8 85 -15 103 -15 17 0 32 -4 32 -10
0 -5 8 -10 17 -10 28 0 103 -32 103 -44 0 -6 15 -18 32 -26 20 -9 35 -25 39
-41 4 -15 18 -43 32 -64 14 -21 23 -43 20 -51 -3 -7 3 -21 12 -30 12 -13 15
-27 10 -53 -3 -20 -6 -49 -5 -66 1 -52 -22 -147 -33 -136 -7 7 -6 20 2 39 10
25 10 42 -4 93 -19 77 -115 279 -132 279 -15 0 -8 -21 22 -70 12 -19 26 -46
30 -60 4 -14 14 -34 21 -45 8 -11 14 -31 14 -45 0 -19 -2 -22 -10 -10 -5 8
-12 11 -16 7 -4 -4 -2 -13 4 -19 15 -15 16 -48 2 -48 -5 0 -10 7 -10 15 0 8
-4 15 -9 15 -5 0 -11 7 -13 16 -3 14 -5 13 -21 -3 -10 -10 -28 -38 -40 -63
-16 -33 -34 -51 -67 -69 -25 -13 -66 -34 -92 -48 -53 -28 -73 -47 -63 -63 11
-18 50 -11 111 20 32 16 64 30 71 30 6 0 13 3 15 8 2 4 27 22 56 41 28 18 52
38 52 43 0 6 6 8 14 5 7 -3 19 0 25 6 24 24 10 -46 -19 -97 -28 -50 -80 -106
-99 -106 -4 0 -19 -9 -33 -19 -13 -11 -38 -23 -54 -27 -16 -4 -33 -10 -39 -14
-12 -9 -67 -24 -77 -22 -5 1 -8 -10 -8 -26 1 -23 2 -24 11 -9 5 9 20 17 33 17
25 0 73 14 123 36 17 8 36 14 42 14 6 0 38 27 71 60 33 33 60 54 60 46 0 -8
-4 -17 -10 -21 -5 -3 -6 -13 -3 -21 6 -18 -38 -69 -79 -90 -15 -8 -39 -25 -54
-39 -25 -23 -26 -25 -6 -25 11 0 28 7 36 16 9 8 21 12 28 8 9 -6 9 -3 -1 9
-12 15 -11 17 5 18 11 1 27 0 37 -1 11 -1 21 7 24 19 6 24 11 25 33 11 12 -9
8 -16 -24 -45 -22 -19 -47 -35 -56 -35 -9 0 -20 -4 -25 -9 -16 -14 -175 -23
-175 -10 0 9 -3 9 -14 0 -14 -12 -46 -5 -46 10 0 15 -18 10 -24 -8 -10 -24 6
-35 66 -44 181 -30 277 -17 334 43 43 45 78 129 86 208 2 19 11 26 37 31 19 4
38 14 43 23 5 9 14 14 19 10 15 -9 0 -75 -27 -116 -13 -21 -24 -42 -24 -48 0
-6 -4 -18 -9 -28 -5 -9 -16 -33 -24 -52 -40 -94 -61 -129 -108 -180 -53 -58
-75 -90 -62 -90 5 0 42 19 83 43 72 41 148 118 177 179 58 122 103 304 103
415 0 28 5 55 10 58 6 3 10 23 10 43 0 28 3 33 12 24 7 -7 20 -12 30 -12 10 0
18 -4 18 -9 0 -5 -8 -7 -18 -4 -23 6 -26 -24 -6 -48 12 -13 23 -14 69 -6 48 9
57 8 75 -8 20 -18 28 -41 11 -31 -5 3 -11 -3 -14 -13 -4 -17 -1 -18 18 -11 30
11 35 5 35 -42 0 -21 4 -38 9 -38 5 0 7 10 4 23 -4 21 -4 22 11 3 9 -11 16
-26 16 -33 0 -7 4 -13 9 -13 5 0 21 -33 36 -72 15 -40 31 -82 36 -93 5 -11 10
-31 12 -45 1 -14 6 -30 10 -36 4 -7 0 -14 -8 -18 -8 -3 -15 -16 -15 -28 -1
-22 -1 -22 -14 -5 -10 13 -16 15 -21 7 -10 -16 -26 9 -20 30 2 8 1 21 -4 28
-10 16 -24 -40 -15 -62 8 -22 -12 -28 -31 -9 -14 14 -18 14 -26 2 -7 -9 -8 0
-4 28 4 23 2 50 -3 59 -7 13 -12 6 -23 -37 -15 -62 -17 -208 -3 -217 6 -4 11
-36 12 -72 2 -46 13 -92 39 -160 65 -170 63 -163 46 -175 -12 -9 -13 -18 -5
-48 6 -21 7 -35 2 -32 -5 3 -11 -1 -13 -7 -4 -8 -8 -4 -12 10 -4 12 -14 22
-22 22 -7 0 -24 6 -36 14 -26 16 -117 28 -117 15 0 -5 -11 -9 -25 -9 -14 0
-25 -4 -25 -10 0 -16 -15 -12 -41 11 -41 36 -217 117 -269 124 -27 4 -50 11
-50 16 0 5 -4 9 -10 9 -5 0 -10 -7 -10 -15 0 -11 -12 -15 -42 -17 -70 -2 -91
2 -109 23 -9 10 -24 19 -33 19 -9 0 -16 4 -16 9 0 5 -9 7 -19 4 -11 -3 -28 4
-40 16 -29 29 -108 40 -117 17 -8 -20 -30 -21 -38 0 -9 23 -28 5 -22 -21 6
-25 -24 -61 -31 -37 -8 22 -49 14 -62 -14 -14 -31 -37 -26 -34 7 2 25 -37 119
-49 119 -5 0 -8 -12 -9 -27 0 -16 -3 -37 -5 -48 -3 -11 -8 -42 -11 -70 -3 -27
-12 -60 -20 -72 -10 -15 -11 -23 -3 -28 8 -5 8 -10 0 -20 -8 -10 -7 -14 2 -18
7 -2 10 -7 6 -11 -3 -4 -43 -2 -89 5 -50 7 -119 9 -176 5 l-93 -6 35 45 c39
51 78 169 73 218 -3 27 -5 29 -12 12 -5 -11 -13 -32 -20 -48 -14 -34 -30 -30
-34 9 -4 35 -21 57 -23 29 -3 -43 -5 -48 -19 -53 -12 -4 -13 -2 -3 9 7 9 9 20
3 29 -7 12 -10 12 -16 -3 -6 -17 -8 -16 -21 3 -15 22 -39 27 -45 9 -3 -9 -13
-9 -39 0 -29 9 -44 8 -93 -9 -50 -17 -83 -19 -239 -19 -177 1 -217 -4 -217
-22 0 -5 -15 -9 -34 -9 -19 0 -38 -4 -41 -10 -8 -12 -50 -13 -73 -2 -9 5 -28
6 -42 1 -14 -4 -18 -7 -9 -8 9 -1 19 -8 23 -16 7 -19 1 -19 -29 1 -22 14 -27
14 -62 -2 -21 -10 -40 -21 -43 -24 -17 -21 -82 -61 -88 -55 -4 4 -1 10 6 12 6
3 12 10 12 16 0 7 17 30 38 52 47 50 102 139 102 165 0 10 6 23 13 27 6 4 13
26 14 48 5 99 15 190 24 206 11 22 12 32 1 25 -5 -3 -7 44 -6 105 3 90 1 109
-11 109 -8 0 -15 8 -15 19 0 25 -25 44 -47 36 -39 -13 -155 -185 -217 -319
-46 -99 -61 -156 -91 -346 -28 -178 -48 -251 -39 -140 3 36 9 76 14 90 5 14
11 57 14 97 6 77 40 265 58 323 37 120 103 264 161 350 56 83 109 141 124 136
10 -4 13 -1 9 12 -5 18 55 92 75 92 5 0 7 -4 4 -10 -3 -5 -1 -10 5 -10 6 0 8
10 4 24 -6 24 17 43 38 30 6 -4 8 1 4 13 -4 14 2 23 24 36 17 10 30 13 30 8 0
-6 7 -11 16 -11 8 0 12 5 8 11 -4 8 0 9 15 4 16 -5 21 -2 21 11 0 13 6 15 33
10 20 -4 27 -3 18 3 -8 5 -11 16 -8 25 7 18 32 21 42 6 9 -15 27 -1 21 16 -3
8 -1 14 5 14 6 0 8 4 4 9 -3 5 -1 12 4 15 5 4 12 2 16 -4 9 -14 27 -1 21 15
-3 10 8 16 40 21 24 3 44 10 44 15 0 5 13 9 29 9 16 0 31 5 33 10 2 6 20 11
41 12 20 1 37 6 37 11 0 6 3 7 7 4 3 -4 11 -3 17 2 6 4 43 12 81 16 39 4 95
10 125 15 78 10 314 10 450 0z m-3880 -68 c38 6 46 -22 17 -58 -16 -21 -18
-30 -9 -45 17 -27 15 -30 -13 -23 -20 5 -24 3 -19 -10 3 -9 9 -16 13 -16 11 0
53 -41 48 -47 -3 -2 -19 3 -36 11 -43 23 -51 19 -16 -9 34 -28 27 -44 -10 -27
-31 14 -214 16 -235 2 -12 -7 -11 -12 5 -31 11 -12 29 -25 40 -30 l20 -8 -20
0 c-25 -1 -94 41 -77 46 6 3 12 9 12 14 0 5 20 27 45 50 25 23 45 47 45 54 0
7 9 23 20 36 11 13 27 50 36 81 l16 57 44 -25 c30 -17 54 -25 74 -22z m-754
21 c18 -24 17 -35 -3 -31 -9 2 -17 13 -18 26 -2 27 3 28 21 5z m64 -121 c0
-11 -35 -52 -44 -52 -12 0 -6 20 12 39 18 21 32 26 32 13z m5464 -100 c20 -30
26 -50 26 -93 0 -96 -21 -132 -35 -61 -41 213 -40 225 9 154z m-5404 6 c0 -18
-2 -20 -9 -8 -6 8 -7 18 -5 22 9 14 14 9 14 -14z m285 2 c-3 -5 -11 -10 -16
-10 -6 0 -7 5 -4 10 3 6 11 10 16 10 6 0 7 -4 4 -10z m-385 -10 c0 -5 -4 -10
-10 -10 -5 0 -10 5 -10 10 0 6 5 10 10 10 6 0 10 -4 10 -10z m135 0 c-3 -5
-10 -10 -16 -10 -5 0 -9 5 -9 10 0 6 7 10 16 10 8 0 12 -4 9 -10z m5168 -15
c-3 -9 -8 -14 -10 -11 -3 3 -2 9 2 15 9 16 15 13 8 -4z m-4909 -17 c-3 -12 1
-27 13 -40 18 -21 18 -21 -9 -14 -15 3 -30 2 -33 -4 -4 -6 -11 -8 -16 -4 -5 3
-6 11 -2 17 4 7 6 23 5 37 -3 21 2 25 23 26 21 2 25 -1 19 -18z m4976 5 c0 -5
-9 -19 -20 -33 l-19 -25 6 25 c7 27 33 54 33 33z m-5240 -28 c8 -2 17 -4 19
-4 2 -1 -2 -8 -9 -16 -9 -11 -10 -15 -1 -15 8 0 7 -5 -3 -15 -16 -16 -27 -20
-24 -7 3 15 -14 61 -25 65 -12 4 14 -1 43 -8z m413 8 c-7 -2 -21 -2 -30 0 -10
3 -4 5 12 5 17 0 24 -2 18 -5z m-493 -13 c0 -5 -12 -10 -27 -9 l-28 1 25 8
c14 4 26 8 28 9 1 1 2 -3 2 -9z m5388 -41 c-3 -23 -4 -23 -20 8 -17 35 -12 52
10 30 7 -8 12 -25 10 -38z m-5133 34 c-11 -3 -24 -11 -28 -19 -4 -8 -14 -14
-21 -14 -8 0 -19 -7 -26 -15 -14 -17 -30 -20 -30 -5 0 6 8 14 18 17 9 4 28 15
41 25 13 10 33 17 45 17 20 -1 20 -2 1 -6z m282 1 c-3 -3 -12 -4 -19 -1 -8 3
-5 6 6 6 11 1 17 -2 13 -5z m53 -20 c0 -2 -9 -4 -20 -4 -11 0 -20 4 -20 9 0 5
9 7 20 4 11 -3 20 -7 20 -9z m-540 -5 c0 -5 -4 -9 -10 -9 -5 0 -10 -5 -10 -10
0 -6 -10 -21 -21 -33 -12 -12 -19 -17 -15 -10 4 7 -3 14 -15 18 -16 6 -18 9
-8 15 7 5 17 6 23 3 5 -3 6 -1 2 5 -11 18 1 30 29 30 14 0 25 -4 25 -9z m5300
-30 c0 -10 5 -19 10 -19 6 0 10 -22 10 -50 0 -27 -4 -50 -9 -50 -8 0 -26 76
-22 95 2 6 -1 6 -6 2 -4 -5 -8 -12 -8 -15 -1 -16 -17 -32 -33 -32 -15 1 -16 2
-1 13 9 7 22 29 29 49 14 38 30 42 30 7z m-5086 6 c-4 -8 -8 -15 -10 -15 -2 0
-4 7 -4 15 0 8 4 15 10 15 5 0 7 -7 4 -15z m63 -1 c-3 -3 -12 -4 -19 -1 -8 3
-5 6 6 6 11 1 17 -2 13 -5z m4772 -83 c9 -6 10 -10 2 -16 -15 -8 -41 1 -41 15
0 12 20 13 39 1z m71 -11 c0 -5 -4 -10 -10 -10 -5 0 -10 5 -10 10 0 6 5 10 10
10 6 0 10 -4 10 -10z m135 -46 c-10 -7 -22 -11 -28 -7 -6 3 -3 11 8 19 10 7
22 11 28 7 6 -3 3 -11 -8 -19z m45 -44 c0 -5 -4 -10 -9 -10 -5 0 -15 -2 -23
-5 -7 -3 -22 1 -33 9 -19 14 -17 15 23 16 23 0 42 -4 42 -10z m-170 -41 c0
-11 -4 -18 -10 -14 -5 3 -7 12 -3 20 7 21 13 19 13 -6z m40 -16 c0 -4 -7 -33
-16 -65 -11 -37 -22 -58 -31 -58 -8 0 -12 6 -9 13 3 6 9 20 12 30 4 9 10 17
15 17 5 0 9 16 9 35 0 19 5 35 10 35 6 0 10 -3 10 -7z m-3195 -23 c3 -5 1 -10
-4 -10 -6 0 -11 5 -11 10 0 6 2 10 4 10 3 0 8 -4 11 -10z m3202 -122 c-3 -7
-5 -2 -5 12 0 14 2 19 5 13 2 -7 2 -19 0 -25z m-2054 -38 c10 0 15 -5 12 -10
-4 -6 -14 -9 -23 -8 -20 4 -30 -38 -13 -55 8 -8 11 -6 11 8 0 10 3 16 6 12 10
-10 -7 -128 -18 -121 -5 3 -6 19 -3 35 4 15 2 36 -4 46 -8 16 -10 15 -15 -7
-3 -14 -10 -56 -16 -95 -6 -38 -15 -90 -19 -115 -5 -25 -14 -70 -19 -100 -20
-106 -31 -147 -62 -217 -16 -40 -30 -81 -30 -93 0 -12 -4 -18 -10 -15 -5 3
-10 1 -10 -4 0 -6 -5 -11 -11 -11 -27 0 12 388 53 525 37 126 117 260 141 236
6 -6 19 -11 30 -11z m2035 -5 c-6 -14 -15 -25 -20 -25 -4 0 -8 -6 -8 -14 0
-13 -29 -31 -37 -23 -3 3 68 86 74 87 2 0 -3 -11 -9 -25z m552 -105 c0 -5 -2
-10 -4 -10 -3 0 -8 5 -11 10 -3 6 -1 10 4 10 6 0 11 -4 11 -10z m-2623 -127
c-3 -10 -5 -2 -5 17 0 19 2 27 5 18 2 -10 2 -26 0 -35z m-16 -74 c-8 -38 -9
-40 -10 -12 -1 17 2 39 5 48 11 29 14 10 5 -36z m-784 -45 c-3 -3 -12 -4 -19
-1 -8 3 -5 6 6 6 11 1 17 -2 13 -5z m760 -51 c-3 -10 -5 -4 -5 12 0 17 2 24 5
18 2 -7 2 -21 0 -30z m1110 -165 c-3 -7 -5 -2 -5 12 0 14 2 19 5 13 2 -7 2
-19 0 -25z m-505 -172 c77 -24 113 -47 100 -61 -4 -5 1 -5 10 -2 12 4 21 -1
28 -13 6 -11 18 -20 28 -20 15 -1 15 -2 -2 -15 -19 -14 -15 -52 4 -40 5 3 10
1 10 -5 0 -7 -6 -10 -13 -7 -7 3 -21 -1 -32 -9 -10 -8 -27 -14 -37 -14 -10 0
-18 -4 -18 -8 0 -4 -8 -8 -17 -9 -86 -6 -396 -22 -426 -23 -22 0 -36 4 -32 9
3 6 -3 15 -14 20 -24 13 -23 61 3 90 10 11 16 27 13 36 -6 14 1 20 93 70 72
39 183 39 302 1z m745 -28 c49 -21 67 -42 43 -50 -7 -2 -7 -14 -1 -36 8 -26 5
-48 -14 -105 -26 -80 -40 -196 -49 -403 -2 -39 -6 -76 -9 -81 -4 -6 -9 -48
-12 -94 -3 -46 -8 -103 -11 -126 -6 -41 17 -145 38 -170 15 -19 18 -120 5
-146 -30 -54 -43 -67 -67 -67 -14 0 -30 -4 -36 -10 -11 -11 -72 7 -99 30 -9 8
-29 14 -43 15 -22 0 -28 5 -30 28 -2 15 -9 27 -18 27 -8 0 -14 5 -14 10 0 6 5
10 11 10 6 0 9 22 8 58 -2 45 2 65 22 97 23 38 24 49 26 225 2 102 5 208 7
235 14 162 17 193 27 217 7 18 10 72 6 147 l-4 118 41 21 41 21 -42 0 c-44 1
-55 15 -31 39 21 21 146 15 205 -10z m-1496 -61 c-8 -29 -9 -27 -9 23 -1 44 1
50 9 32 5 -15 6 -36 0 -55z m2389 13 c87 -12 160 -37 160 -56 0 -8 4 -14 8
-14 10 0 32 -45 32 -64 0 -8 -14 -16 -32 -20 -17 -3 -28 -9 -25 -13 4 -3 2
-12 -3 -18 -13 -16 -2 -47 14 -39 6 3 0 -4 -14 -15 -20 -16 -39 -21 -96 -21
-39 0 -95 4 -125 9 -47 8 -193 20 -255 21 -12 0 -29 11 -38 24 -16 25 -15 26
52 94 111 113 165 132 322 112z m-1307 -186 c14 19 12 20 50 -61 22 -48 5
-281 -22 -303 -4 -3 -19 -30 -35 -60 -26 -51 -44 -84 -73 -135 -6 -11 -14 -17
-17 -14 -7 7 16 59 26 59 3 0 9 13 13 30 4 16 11 32 15 35 17 10 82 153 77
167 -3 7 -6 3 -6 -9 -1 -13 -5 -23 -9 -23 -5 0 -19 -20 -32 -45 -13 -25 -29
-50 -37 -56 -7 -6 -13 -17 -13 -23 0 -7 -13 -30 -29 -52 -16 -21 -32 -50 -36
-63 -8 -27 -35 -61 -49 -61 -5 0 -1 9 10 21 17 19 18 21 1 30 -19 11 -24 49
-6 49 6 0 9 7 5 15 -3 8 -1 15 4 15 6 0 10 9 10 20 0 11 4 20 9 20 5 0 11 8
15 18 3 9 9 23 12 30 3 6 1 12 -4 12 -6 0 -31 -42 -56 -92 -39 -81 -46 -104
-52 -183 -4 -49 -12 -94 -18 -100 -14 -14 -84 -32 -151 -39 -87 -10 -262 -8
-297 2 -18 6 -46 13 -62 17 -21 4 -27 10 -23 25 6 24 -23 37 -39 16 -12 -17
-59 -22 -68 -7 -3 5 -18 12 -33 16 -15 3 -49 25 -74 48 -26 23 -64 56 -86 74
-32 27 -34 31 -14 26 20 -5 23 -3 18 10 -3 9 -2 19 3 22 14 8 10 66 -7 104
-20 45 -20 64 7 146 12 39 31 106 42 150 12 44 25 90 31 102 5 11 7 26 3 31
-3 6 -2 13 3 16 5 3 12 -16 16 -44 5 -36 12 -51 26 -55 10 -4 19 -11 19 -16 0
-20 144 -139 168 -139 4 0 19 -6 33 -14 26 -13 80 -26 135 -32 16 -1 34 -4 40
-6 8 -2 119 18 152 28 7 2 16 4 20 5 4 1 19 10 34 20 14 10 31 19 38 19 26 0
70 32 70 50 0 15 7 20 25 20 17 0 29 8 37 25 8 17 19 25 37 25 14 0 42 2 61 4
19 3 42 5 50 5 10 1 16 13 17 35 2 27 -3 39 -22 54 -14 11 -25 26 -25 33 0 7
10 3 25 -11 24 -22 26 -23 38 -6z m-420 5 c17 -1 15 -3 -8 -9 -45 -11 -201
-12 -189 -1 9 10 135 20 162 14 8 -2 23 -4 35 -4z m2347 -199 c17 -86 32 -143
47 -172 11 -24 11 -27 -2 -22 -9 4 -18 -1 -22 -12 -4 -11 -15 -25 -25 -32 -10
-7 -18 -23 -18 -35 0 -12 -15 -70 -33 -129 -27 -89 -35 -106 -46 -95 -11 10
-12 7 -7 -18 4 -18 3 -25 -2 -17 -9 14 -23 1 -56 -52 -16 -25 -16 -28 -2 -23
21 8 20 1 -3 -24 -12 -13 -24 -18 -33 -13 -10 6 -10 4 1 -9 9 -11 10 -17 2
-17 -6 0 -11 -4 -11 -10 0 -5 8 -10 17 -10 15 0 14 -2 -3 -19 -11 -10 -30 -24
-42 -30 -12 -6 -22 -18 -22 -27 0 -8 -10 -19 -22 -24 -13 -6 -44 -24 -71 -40
-71 -44 -148 -64 -221 -56 -73 8 -188 49 -234 83 -32 24 -58 25 -34 1 7 -7 12
-19 12 -28 0 -29 25 -70 43 -70 9 0 17 -5 17 -11 0 -5 -5 -7 -12 -3 -14 9 -2
-76 13 -91 5 -5 9 -19 9 -31 0 -13 4 -25 9 -28 5 -3 12 -23 16 -43 4 -21 10
-42 15 -48 6 -9 21 -93 21 -120 -2 -46 -12 -143 -17 -155 -8 -17 -16 -83 -15
-121 0 -22 -4 -26 -19 -22 -15 4 -20 0 -20 -16 0 -11 6 -21 13 -21 8 0 8 -3
-2 -9 -12 -8 -13 -15 -3 -35 7 -16 8 -28 2 -31 -13 -8 -13 -65 0 -65 6 0 10
-4 10 -10 0 -17 -28 -11 -39 8 -10 16 -10 16 -11 0 0 -17 -30 -27 -30 -10 0 6
-57 66 -152 160 -31 32 -64 70 -74 88 -7 11 -22 19 -37 19 -35 1 -36 3 -46 71
l-8 59 -13 -34 c-12 -32 -14 -33 -27 -16 -17 25 -17 45 2 45 8 0 15 3 16 8 0
4 2 17 3 29 2 14 -2 19 -11 16 -7 -3 -13 -1 -13 5 0 5 7 13 16 16 11 4 14 14
9 35 -7 31 11 53 25 31 9 -14 11 7 14 157 2 62 0 110 -4 108 -3 -2 -6 36 -5
84 0 56 -5 93 -12 103 -7 8 -10 18 -6 22 4 3 6 24 5 46 -3 37 -1 40 24 40 20
0 42 -15 81 -55 30 -30 56 -55 58 -55 10 0 -23 49 -50 73 -123 110 -135 124
-141 154 -6 29 -4 31 15 26 22 -6 30 12 9 20 -7 3 0 6 15 6 18 1 36 -8 51 -23
l22 -25 15 21 c8 11 20 26 27 34 6 7 12 20 12 29 0 13 -6 16 -24 11 -18 -4
-28 -1 -35 11 -10 17 -10 17 -11 -2 0 -19 0 -19 -13 0 -7 11 -19 38 -26 60
-15 44 -38 100 -52 127 -5 10 -9 24 -9 32 0 8 -4 16 -8 18 -16 6 -62 155 -62
199 1 60 24 148 34 124 3 -10 3 -23 -2 -29 -13 -17 -9 -32 16 -66 18 -24 29
-30 45 -26 12 3 27 0 34 -6 10 -8 13 -6 13 10 0 12 8 26 19 31 26 14 93 1 109
-21 7 -10 22 -18 33 -18 10 0 19 -4 19 -10 0 -5 8 -10 18 -11 9 0 12 -3 5 -5
-14 -6 68 -90 94 -97 14 -3 11 -7 -12 -17 l-30 -12 36 -13 c19 -7 48 -24 62
-38 28 -25 112 -55 124 -43 3 3 13 1 20 -6 11 -9 16 -9 22 0 4 7 12 8 21 2 20
-13 67 -13 75 0 3 6 19 10 34 10 15 0 31 4 37 10 18 18 204 110 222 110 20 0
72 55 72 77 0 7 4 13 9 13 19 0 67 140 60 176 -1 5 0 23 1 39 1 24 7 14 26
-45 13 -41 28 -100 34 -130z m985 166 c-17 -14 -32 -20 -34 -14 -5 14 27 38
48 38 11 0 6 -8 -14 -24z m-1605 -95 c0 -5 -9 -7 -20 -4 -11 3 -20 7 -20 9 0
2 9 4 20 4 11 0 20 -4 20 -9z m-1710 -75 c0 -3 -4 -8 -10 -11 -5 -3 -10 -1
-10 4 0 6 5 11 10 11 6 0 10 -2 10 -4z m2595 -246 c-3 -5 -15 -10 -26 -10 -11
0 -17 5 -14 10 3 6 15 10 26 10 11 0 17 -4 14 -10z m-1456 -40 c0 -10 -3 -8
-9 5 -12 27 -12 43 0 25 5 -8 9 -22 9 -30z m-2354 -55 c47 -23 51 -43 13 -64
-25 -14 -33 -14 -100 9 -66 23 -73 28 -76 54 l-4 28 64 -4 c35 -2 81 -13 103
-23z m2372 3 c-3 -8 -6 -5 -6 6 -1 11 2 17 5 13 3 -3 4 -12 1 -19z m-791 -35
c-4 -10 -7 -20 -6 -22 1 -2 -2 -7 -7 -10 -10 -8 -30 -40 -43 -70 -6 -13 -31
-45 -55 -70 -37 -38 -45 -53 -45 -83 0 -20 -4 -39 -9 -42 -4 -3 -3 -37 4 -75
6 -39 8 -68 3 -65 -4 3 -8 -9 -8 -27 0 -24 3 -29 13 -21 10 9 13 1 15 -33 1
-24 -3 -47 -8 -50 -13 -8 -13 -132 0 -140 6 -3 10 -15 10 -26 0 -25 98 -121
114 -112 6 4 4 -2 -4 -12 -9 -11 -10 -16 -2 -11 7 4 12 2 12 -7 0 -10 -7 -13
-18 -10 -10 2 -24 -3 -31 -11 -8 -9 -22 -16 -32 -16 -12 0 -19 -7 -19 -20 0
-14 -7 -20 -21 -20 -12 0 -47 -15 -78 -34 -31 -18 -67 -37 -81 -41 -37 -11
-207 -93 -222 -108 -7 -7 -25 -20 -40 -29 -25 -17 -28 -17 -49 1 -18 15 -21
24 -15 54 4 20 11 37 17 37 5 0 7 11 3 24 -3 13 -1 34 6 46 9 17 8 27 -8 53
-20 35 -19 57 4 57 17 0 19 27 3 32 -9 3 -9 13 -1 38 15 47 26 163 13 134 -20
-46 -51 -33 -50 22 0 16 -3 44 -7 62 -5 27 -9 30 -21 21 -23 -19 -41 5 -24 33
12 19 11 20 -11 16 -21 -4 -24 -1 -20 19 2 13 -1 23 -7 23 -5 0 -8 7 -5 15 4
8 14 15 24 15 29 0 35 19 35 109 l0 83 130 4 c164 5 294 31 378 77 36 20 48
37 26 37 -17 0 1 21 27 31 22 8 24 13 18 44 -4 25 -2 39 10 50 14 14 16 14 16
1 0 -8 -4 -18 -10 -21 -5 -3 -10 -10 -10 -16 0 -5 5 -9 10 -9 6 0 10 7 10 15
0 8 5 15 10 15 6 0 13 8 17 18 8 22 35 54 41 47 2 -2 1 -12 -2 -22z m-1076
-65 c0 -13 -23 -5 -28 10 -2 7 2 10 12 6 9 -3 16 -11 16 -16z m920 2 c0 -5 -2
-10 -4 -10 -3 0 -8 5 -11 10 -3 6 -1 10 4 10 6 0 11 -4 11 -10z m-1143 -22
c-3 -8 -6 -5 -6 6 -1 11 2 17 5 13 3 -3 4 -12 1 -19z m293 -28 l23 -20 -32 0
c-18 0 -30 4 -26 9 3 6 -3 14 -12 20 -17 10 -16 10 3 11 12 0 31 -9 44 -20z
m850 5 c0 -8 -4 -15 -10 -15 -5 0 -10 7 -10 15 0 8 5 15 10 15 6 0 10 -7 10
-15z m2585 -45 c-3 -6 4 -10 17 -10 24 -1 74 -41 96 -78 21 -37 13 -45 -13
-14 -14 17 -25 35 -25 40 0 6 -5 14 -12 18 -7 5 -9 2 -5 -9 5 -13 -1 -15 -39
-13 -24 2 -44 0 -44 -3 0 -10 -62 -31 -88 -31 -12 0 -22 -4 -22 -10 0 -5 -6
-10 -13 -10 -7 0 -18 -9 -25 -20 -21 -34 -35 -24 -28 20 3 22 9 58 12 79 4 25
10 38 18 35 7 -3 23 0 37 5 33 13 142 14 134 1z m-3355 -29 c0 -5 -35 -6 -59
-2 -3 1 4 7 15 15 18 14 44 6 44 -13z m2767 -13 c-3 -8 -6 -5 -6 6 -1 11 2 17
5 13 3 -3 4 -12 1 -19z m-2745 -6 c-7 -5 -10 -16 -6 -25 4 -11 1 -17 -7 -17
-7 0 -25 -15 -40 -32 -16 -18 -28 -27 -29 -20 0 6 5 12 11 12 5 0 8 4 5 9 -10
15 47 81 69 81 6 0 4 -4 -3 -8z m28 -118 c0 -6 -6 -11 -12 -11 -8 0 -14 15
-15 36 l-3 36 15 -25 c8 -14 14 -30 15 -36z m20 -39 c0 -8 -4 -15 -10 -15 -5
0 -10 7 -10 15 0 8 5 15 10 15 6 0 10 -7 10 -15z m-633 -37 c-3 -7 -5 -2 -5
12 0 14 2 19 5 13 2 -7 2 -19 0 -25z m4044 -21 c-14 -14 -14 -44 -1 -49 12 -4
-2 -99 -15 -98 -6 0 -10 30 -11 68 -1 66 11 106 29 95 5 -3 4 -10 -2 -16z
m-3374 -22 c14 -31 12 -31 -17 0 -16 17 -19 25 -9 25 8 0 19 -11 26 -25z m833
21 c0 -3 -4 -8 -10 -11 -5 -3 -10 -1 -10 4 0 6 5 11 10 11 6 0 10 -2 10 -4z
m-1437 -123 c-4 -56 -10 -90 -15 -86 -6 3 -7 23 -4 44 4 24 2 39 -4 39 -13 0
-1 82 14 92 6 4 11 6 12 5 1 -1 0 -44 -3 -94z m2677 -33 c3 -4 18 -10 34 -14
16 -4 39 -14 50 -23 20 -14 20 -15 1 -9 -11 3 -33 7 -48 10 -16 3 -34 9 -40
14 -7 5 -25 12 -40 16 -15 4 -25 11 -22 16 6 10 56 2 65 -10z m985 10 c3 -5 1
-10 -4 -10 -6 0 -11 5 -11 10 0 6 2 10 4 10 3 0 8 -4 11 -10z m-1008 -36 c-3
-3 -12 -4 -19 -1 -8 3 -5 6 6 6 11 1 17 -2 13 -5z m-2900 -86 c-3 -7 -5 -2 -5
12 0 14 2 19 5 13 2 -7 2 -19 0 -25z m2978 -19 c7 -7 -1 -9 -24 -7 -19 2 -37
9 -39 17 -4 11 2 12 24 7 16 -4 34 -12 39 -17z m-2558 -21 c-3 -8 -6 -5 -6 6
-1 11 2 17 5 13 3 -3 4 -12 1 -19z m-321 -25 c-10 -10 -19 5 -10 18 6 11 8 11
12 0 2 -7 1 -15 -2 -18z m4134 19 c0 -4 16 -9 37 -10 20 -2 40 -5 45 -8 4 -3
21 -8 36 -10 50 -9 177 -45 207 -59 17 -7 40 -16 53 -20 12 -4 20 -11 16 -16
-3 -6 0 -10 7 -8 8 1 21 1 29 0 12 -1 12 -3 2 -10 -11 -7 -11 -9 2 -14 9 -4
16 -2 16 3 0 5 13 2 29 -8 16 -9 27 -20 25 -24 -3 -5 2 -8 12 -8 16 0 113 -90
115 -107 0 -4 2 -17 4 -29 4 -18 0 -20 -25 -16 -17 2 -33 8 -36 13 -10 17 -35
9 -43 -13 -8 -21 -10 -22 -16 -4 -5 11 -3 21 5 26 7 5 8 10 2 14 -5 3 -13 -1
-16 -10 -5 -13 -9 -14 -21 -4 -8 7 -12 17 -8 23 3 6 1 7 -5 3 -7 -4 -23 4 -37
18 -14 15 -30 26 -34 26 -5 0 -12 7 -15 16 -4 9 -9 14 -12 11 -3 -3 -22 2 -42
10 -24 10 -79 17 -157 19 -184 6 -223 12 -231 36 -3 11 -1 25 5 31 6 6 11 33
11 59 0 27 6 55 13 63 13 16 27 19 27 7z m-2364 -69 c-3 -4 4 -13 16 -21 14
-8 16 -11 5 -8 -12 4 -16 2 -10 -6 10 -17 12 -48 2 -48 -12 0 -19 -44 -8 -56
11 -14 3 -54 -10 -54 -8 0 -23 -80 -25 -131 -1 -15 -9 -35 -18 -45 -9 -11 -20
-32 -24 -49 -7 -29 -6 -29 12 -14 10 9 27 19 36 22 9 3 25 21 34 39 9 18 23
37 30 41 8 4 14 15 14 22 0 8 5 15 10 15 6 0 10 -18 10 -40 0 -22 5 -40 10
-40 6 0 21 -10 33 -23 12 -12 35 -28 50 -35 23 -10 29 -9 34 4 3 9 0 20 -8 25
-8 5 -10 9 -5 9 4 0 -6 16 -23 35 -29 34 -51 89 -50 130 0 22 -10 127 -16 163
-4 21 -1 23 41 21 24 -2 45 -8 45 -13 1 -6 2 -15 4 -21 1 -5 3 -16 3 -22 1 -7
6 -13 12 -13 5 0 7 7 4 15 -5 11 1 15 17 15 19 0 21 -2 9 -10 -8 -5 -11 -10
-6 -10 5 0 3 -6 -3 -14 -9 -11 -9 -16 -1 -21 14 -8 4 -56 -13 -67 -8 -5 -7 -8
4 -8 20 0 31 -55 17 -86 -11 -24 7 -108 22 -99 4 3 18 -7 29 -22 11 -16 26
-34 31 -40 8 -10 5 -13 -15 -14 -37 -2 -43 -3 -51 -11 -4 -5 -17 -8 -29 -8
-12 0 -41 -10 -65 -21 -34 -17 -48 -19 -62 -10 -10 6 -23 11 -30 11 -19 0
-148 62 -148 72 0 4 -5 8 -11 8 -6 0 -17 7 -26 15 -13 14 -13 20 -1 53 11 28
13 61 8 137 -5 70 -4 103 4 108 7 6 4 7 -6 3 -13 -4 -18 0 -18 14 0 10 -4 22
-10 25 -19 12 -10 35 13 35 12 0 42 11 67 24 43 23 81 34 66 19z m-1496 -56
c-14 -8 -27 -12 -30 -10 -7 6 23 23 40 23 8 0 4 -6 -10 -13z m1564 -18 c-3 -5
-10 -7 -15 -3 -5 3 -7 10 -3 15 3 5 10 7 15 3 5 -3 7 -10 3 -15z m2222 -16
c-10 -10 -19 5 -10 18 6 11 8 11 12 0 2 -7 1 -15 -2 -18z m-5681 -33 c-3 -5
-11 -10 -16 -10 -6 0 -7 5 -4 10 3 6 11 10 16 10 6 0 7 -4 4 -10z m180 -9 c28
-4 71 -19 97 -35 62 -36 192 -176 164 -176 -2 0 -18 14 -36 30 -37 34 -56 39
-40 11 15 -30 13 -34 -20 -28 -24 5 -28 4 -23 -10 5 -12 3 -14 -8 -7 -8 4 -39
9 -69 9 -30 1 -65 5 -78 9 -15 5 -22 4 -20 -4 5 -21 -20 -22 -26 -2 -4 11 -15
27 -26 37 -10 9 -16 23 -13 31 3 9 -1 14 -12 14 -11 0 -16 7 -15 23 3 36 1 49
-9 43 -5 -3 -7 -16 -4 -29 4 -16 -2 -12 -21 15 -29 42 -33 60 -11 52 8 -4 15
-1 15 5 0 18 41 31 75 25 17 -3 53 -9 80 -13z m1652 -33 c-3 -8 -6 -5 -6 6 -1
11 2 17 5 13 3 -3 4 -12 1 -19z m1233 -7 c0 -6 -4 -13 -10 -16 -5 -3 -10 1
-10 9 0 9 5 16 10 16 6 0 10 -4 10 -9z m2203 -45 c9 -7 17 -16 17 -18 0 -10
-40 -16 -46 -7 -3 5 0 9 5 9 18 0 12 18 -6 23 -13 3 -14 5 -3 6 8 0 23 -6 33
-13z m80 -26 c3 -13 0 -20 -9 -20 -8 0 -14 10 -14 26 0 28 15 25 23 -6z m1094
8 c-3 -8 -6 -5 -6 6 -1 11 2 17 5 13 3 -3 4 -12 1 -19z m-2469 -51 c5 -24 -15
-21 -21 4 -3 13 -1 19 6 16 7 -2 13 -11 15 -20z m1479 -3 c4 -10 0 -22 -10
-29 -9 -7 -14 -15 -10 -18 3 -4 12 -2 20 5 28 23 27 -5 -1 -29 -25 -21 -31
-23 -43 -10 -12 11 -12 19 -4 35 15 27 14 32 -4 32 -21 0 -19 18 3 23 33 9 43
7 49 -9z m159 -9 c-11 -8 -24 -15 -30 -15 -5 0 -1 7 10 15 10 8 24 14 29 14 6
0 1 -6 -9 -14z m123 -1 c10 -9 -55 -3 -69 6 -10 6 -2 7 25 3 22 -3 42 -7 44
-9z m-1729 -4 c0 -5 -5 -10 -11 -10 -5 0 -7 5 -4 10 3 6 8 10 11 10 2 0 4 -4
4 -10z m2319 -12 c5 -13 7 -26 4 -30 -2 -5 3 -8 12 -8 11 0 15 5 11 15 -3 8 0
15 7 16 9 0 9 2 -1 6 -6 2 -10 9 -6 14 18 29 34 -44 18 -85 -5 -13 -11 -11
-33 12 -15 15 -30 40 -33 55 -6 33 9 36 21 5z m96 12 c3 -5 1 -18 -4 -27 -6
-10 -11 -16 -11 -13 -8 38 -8 50 -1 50 6 0 13 -4 16 -10z m75 6 c0 -3 -4 -8
-10 -11 -5 -3 -10 -1 -10 4 0 6 5 11 10 11 6 0 10 -2 10 -4z m-7213 -12 c-3
-3 -12 -4 -19 -1 -8 3 -5 6 6 6 11 1 17 -2 13 -5z m178 -15 c7 -9 -3 -10 -39
-5 -27 3 -55 6 -63 6 -8 0 -11 5 -7 11 8 14 93 4 109 -12z m6492 -5 c-3 -3
-12 -4 -19 -1 -8 3 -5 6 6 6 11 1 17 -2 13 -5z m-5927 -36 c0 -12 -10 -9 -26
6 -20 21 -17 28 6 14 11 -7 20 -16 20 -20z m-637 15 c-7 -2 -19 -2 -25 0 -7 3
-2 5 12 5 14 0 19 -2 13 -5z m6663 -8 c24 -18 19 -18 -31 0 -33 12 -36 14 -14
15 14 0 34 -7 45 -15z m-6516 -5 c11 -7 7 -10 -18 -10 -20 0 -31 4 -27 10 8
13 26 13 45 0z m764 -1 c-2 -4 2 -10 8 -12 8 -4 7 -6 -3 -6 -9 -1 -19 5 -22
12 -3 8 1 14 9 14 7 0 11 -4 8 -8z m5478 0 c53 -1 116 -7 140 -14 24 -8 71
-19 106 -26 34 -7 62 -17 62 -22 0 -5 7 -6 16 -3 9 4 23 1 32 -6 13 -12 14
-11 2 9 -8 12 -24 24 -37 28 -33 8 -29 25 4 19 26 -5 94 -49 101 -65 6 -15 71
-76 86 -82 9 -4 16 -13 16 -22 0 -8 6 -15 14 -15 8 0 23 -13 32 -29 10 -16 28
-34 41 -40 12 -6 23 -17 23 -24 0 -8 12 -20 26 -27 14 -8 34 -35 46 -62 11
-26 24 -48 29 -48 5 0 9 -6 9 -13 0 -7 13 -31 30 -53 16 -21 30 -47 30 -57 0
-14 5 -17 21 -12 19 6 21 4 16 -14 -3 -14 1 -22 14 -26 10 -4 19 -12 19 -18 0
-15 47 -67 61 -67 6 0 8 -9 4 -19 -4 -14 1 -25 20 -37 16 -11 25 -24 22 -34
-2 -9 2 -25 10 -36 15 -18 15 -18 9 3 -5 15 -1 25 11 32 10 6 13 11 6 11 -17
0 -36 37 -20 37 7 0 21 4 31 9 16 6 18 4 13 -9 -4 -11 -1 -17 9 -17 10 0 7 -8
-12 -25 -23 -22 -25 -25 -9 -31 10 -4 21 -1 26 7 6 10 9 8 9 -9 0 -13 -7 -30
-15 -38 -21 -21 -19 -33 4 -27 12 3 17 11 14 20 -4 11 0 14 13 11 11 -2 20
-13 22 -26 2 -12 8 -20 13 -17 5 4 9 -6 9 -20 0 -19 4 -26 14 -22 8 3 17 -1
20 -9 3 -8 0 -14 -6 -14 -6 0 -16 -7 -22 -15 -9 -12 -15 -10 -38 15 -20 22
-23 30 -12 34 18 7 19 33 1 33 -7 0 -18 -11 -24 -24 -10 -20 -8 -26 12 -39 15
-10 21 -21 18 -34 -3 -11 -9 -20 -13 -20 -11 0 -60 59 -60 71 0 14 -3 23 -12
34 -29 34 -98 136 -98 145 0 5 -7 10 -15 10 -8 0 -15 2 -15 4 0 2 -3 12 -7 22
-4 12 -3 15 5 10 7 -4 12 -2 12 3 0 6 -11 11 -24 11 -13 0 -39 15 -58 33 -64
59 -84 73 -95 70 -15 -5 -4 -43 13 -43 11 0 11 -5 2 -25 -9 -19 -9 -28 0 -37
9 -9 12 -6 12 15 0 15 5 27 11 27 15 0 73 -53 77 -70 2 -8 12 -20 23 -28 11
-7 26 -30 35 -50 12 -29 17 -34 25 -22 7 10 7 6 2 -15 -12 -46 -8 -93 9 -112
8 -10 18 -29 20 -43 3 -14 9 -34 13 -45 6 -17 4 -16 -13 4 -14 18 -21 20 -24
10 -3 -8 -2 -21 3 -29 25 -52 80 -194 94 -245 9 -33 21 -68 26 -77 5 -10 9
-29 9 -42 0 -13 7 -37 15 -52 8 -16 15 -39 15 -52 0 -17 5 -23 18 -20 27 5 39
90 28 208 -4 53 -4 54 13 34 9 -12 27 -26 39 -33 12 -7 20 -16 17 -22 -4 -5 2
-12 12 -16 23 -8 50 -39 70 -78 9 -16 22 -34 29 -38 8 -4 14 -12 14 -17 0 -5
20 -37 43 -72 24 -35 75 -115 112 -178 38 -63 85 -143 107 -177 21 -34 38 -69
38 -78 0 -8 7 -15 15 -15 10 0 15 -10 15 -30 0 -16 4 -30 8 -30 5 0 19 -23 31
-51 13 -28 34 -62 47 -76 13 -14 24 -31 24 -38 0 -7 21 -36 47 -64 39 -43 47
-58 44 -84 -2 -18 -8 -35 -14 -39 -14 -8 -38 2 -36 16 3 24 -1 37 -10 32 -5
-4 -12 0 -15 6 -5 10 -7 10 -12 1 -7 -17 -34 -17 -34 0 0 9 -3 9 -9 -1 -6 -10
-11 -5 -20 18 -9 27 -13 30 -25 21 -12 -10 -17 -8 -26 8 -7 14 -7 21 0 21 20
0 10 18 -14 24 -18 4 -24 12 -21 26 3 17 -2 20 -30 20 -24 0 -38 6 -45 20 -6
11 -15 20 -21 20 -14 0 -39 26 -39 39 0 14 -17 14 -25 0 -5 -7 -12 -6 -23 4
-10 8 -27 18 -39 21 -13 4 -23 12 -23 17 0 5 -7 9 -15 9 -8 0 -19 8 -24 19 -6
10 -24 24 -41 31 -19 8 -29 18 -26 26 6 16 -27 37 -40 26 -5 -4 -2 1 5 11 14
17 10 21 -21 18 -22 -3 -61 36 -52 51 5 7 -1 9 -19 4 -30 -7 -44 8 -27 29 10
12 8 15 -11 15 -18 0 -20 3 -10 9 19 12 6 45 -15 37 -8 -3 -25 3 -37 15 -18
17 -20 21 -7 29 12 8 11 10 -5 11 -12 0 -15 3 -7 6 10 4 7 9 -8 20 -12 8 -24
12 -27 9 -4 -3 -1 -6 5 -6 7 0 12 -4 12 -10 0 -21 -19 -9 -28 19 -9 25 -8 31
6 34 12 3 10 5 -6 6 -13 1 -20 5 -17 11 4 6 -5 20 -20 32 -21 16 -25 26 -20
49 6 26 3 31 -27 44 -18 8 -27 14 -20 15 18 0 15 19 -10 50 -13 15 -30 37 -38
48 -8 12 -17 17 -20 12 -3 -5 -14 4 -24 20 -15 26 -15 30 -2 30 19 0 20 5 6
31 -9 16 -14 17 -32 8 -11 -6 -18 -7 -15 -2 3 5 -7 14 -23 21 -37 17 -47 42
-17 42 17 0 19 2 7 10 -9 5 -19 5 -27 -1 -7 -6 -17 -8 -23 -4 -16 10 -12 33 8
44 9 6 11 11 5 11 -10 0 -8 11 4 43 23 56 26 353 4 366 -7 5 -10 14 -7 20 4 6
3 11 -2 11 -5 0 -12 18 -16 40 -3 22 -10 40 -15 40 -5 0 -11 10 -14 21 -5 19
-2 21 24 15 27 -5 29 -3 29 25 0 18 -4 28 -10 24 -6 -4 -7 -12 -4 -18 5 -9 4
-9 -6 0 -7 6 -19 9 -28 5 -13 -5 -12 -7 4 -13 18 -7 18 -8 -3 -8 -12 -1 -24
-7 -26 -13 -3 -7 -6 0 -6 16 -1 27 -2 28 -18 13 -16 -14 -20 -14 -41 3 -13 11
-23 21 -22 24 2 31 -4 43 -27 53 -16 7 -37 10 -48 7 -15 -3 -29 7 -55 40 -19
25 -40 45 -46 46 -6 0 -17 7 -24 15 -11 14 -15 14 -29 1 -20 -18 -61 -17 -54
1 3 7 9 14 14 14 5 1 14 3 19 4 6 1 15 3 21 4 15 1 -9 31 -25 31 -7 0 -31 18
-55 40 -23 22 -47 38 -52 34 -5 -3 -9 -1 -9 4 0 5 -15 7 -32 6 -18 -1 -76 -5
-128 -9 -52 -3 -113 -10 -135 -15 -22 -5 -63 -10 -91 -10 -72 0 -116 -17 -109
-41 3 -10 7 -27 10 -37 4 -13 -3 -22 -22 -32 -40 -18 -92 -29 -98 -20 -2 4
-20 6 -40 4 -24 -1 -35 2 -35 11 0 7 -7 15 -15 19 -13 4 -14 2 -5 -14 9 -17 8
-20 -10 -20 -13 0 -19 4 -14 11 3 6 1 15 -6 19 -9 6 -7 11 8 19 12 6 27 21 33
32 8 15 8 19 0 15 -6 -4 -11 -2 -11 4 0 7 -7 10 -15 6 -11 -4 -15 2 -15 24 0
19 -5 30 -14 30 -9 0 -15 15 -18 45 -3 38 0 45 14 45 10 0 18 4 18 9 0 4 26 9
57 10 31 0 61 5 67 11 5 5 23 10 38 10 15 0 28 4 28 8 0 5 11 15 25 22 15 8
25 22 25 36 0 13 5 26 10 29 6 4 10 14 8 23 -3 26 21 64 38 58 7 -3 28 1 46 9
21 8 56 12 93 10 33 -2 104 -5 157 -6z m-5273 -67 c9 -18 9 -22 -2 -22 -8 0
-20 14 -27 30 -7 17 -16 30 -21 30 -5 0 -9 8 -9 17 0 15 4 13 24 -8 13 -14 29
-35 35 -47z m2071 53 c0 -8 -2 -15 -4 -15 -2 0 -6 7 -10 15 -3 8 -1 15 4 15 6
0 10 -7 10 -15z m-2485 -5 c3 -5 -1 -10 -10 -10 -9 0 -13 5 -10 10 3 6 8 10
10 10 2 0 7 -4 10 -10z m180 -1 c4 -6 -2 -19 -13 -30 -12 -11 -23 -15 -27 -9
-3 6 -1 10 6 10 9 0 9 3 0 14 -9 11 -9 15 1 19 21 8 26 8 33 -4z m135 -5 c0
-8 -4 -12 -10 -9 -5 3 -10 10 -10 16 0 5 5 9 10 9 6 0 10 -7 10 -16z m6007
-28 c-21 -22 -27 -20 -27 7 0 32 11 40 28 23 13 -13 13 -17 -1 -30z m-6462
-16 c3 -5 1 -10 -4 -10 -6 0 -11 5 -11 10 0 6 2 10 4 10 3 0 8 -4 11 -10z
m165 -24 c0 -3 -4 -8 -10 -11 -5 -3 -10 -1 -10 4 0 6 5 11 10 11 6 0 10 -2 10
-4z m435 -6 c3 -5 1 -10 -4 -10 -6 0 -11 5 -11 10 0 6 2 10 4 10 3 0 8 -4 11
-10z m-28 -42 c-3 -7 -5 -2 -5 12 0 14 2 19 5 13 2 -7 2 -19 0 -25z m4873 13
c0 -5 -7 -12 -16 -15 -24 -9 -28 -7 -14 9 14 17 30 20 30 6z m-3635 -11 c3 -5
-1 -10 -10 -10 -9 0 -13 5 -10 10 3 6 8 10 10 10 2 0 7 -4 10 -10z m120 -60
c3 -5 1 -10 -4 -10 -6 0 -11 5 -11 10 0 6 2 10 4 10 3 0 8 -4 11 -10z m752
-12 c-3 -8 -6 -5 -6 6 -1 11 2 17 5 13 3 -3 4 -12 1 -19z m-2602 -115 c-7 -39
-31 -40 -27 -2 2 19 0 21 -8 9 -7 -11 -9 -4 -8 25 0 22 6 46 12 54 16 20 39
-43 31 -86z m209 81 c24 -9 19 -20 -9 -20 -13 0 -27 6 -29 13 -6 14 12 17 38
7z m6324 -7 c11 -13 -7 -47 -26 -47 -5 0 -12 -7 -16 -15 -3 -8 -1 -15 4 -15 6
0 10 -4 10 -8 0 -5 -13 -7 -28 -4 -25 3 -28 7 -24 33 2 16 16 38 30 49 29 23
36 24 50 7z m-2191 -29 c-3 -7 -5 -2 -5 12 0 14 2 19 5 13 2 -7 2 -19 0 -25z
m-3802 -21 c4 -18 7 -35 6 -39 -2 -13 17 -9 22 5 3 7 6 6 6 -5 1 -9 -4 -20 -9
-23 -6 -4 -8 -11 -5 -16 4 -5 1 -9 -4 -9 -10 0 -16 29 -12 53 0 4 -4 7 -11 7
-6 0 -8 3 -5 7 4 3 -2 12 -13 20 -25 18 -25 28 -1 30 13 1 21 -7 26 -30z m-40
-16 c3 -5 1 -12 -5 -16 -5 -3 -10 1 -10 9 0 18 6 21 15 7z m5203 -50 c-9 -15
-15 -17 -30 -7 -17 10 -17 11 4 18 37 10 39 9 26 -11z m-108 -1 c11 -7 4 -10
-25 -9 -31 0 -36 2 -20 9 26 11 28 11 45 0z m47 4 c-3 -3 -12 -4 -19 -1 -8 3
-5 6 6 6 11 1 17 -2 13 -5z m-5090 -56 c-3 -8 -6 -5 -6 6 -1 11 2 17 5 13 3
-3 4 -12 1 -19z m2200 -4 c-3 -3 -12 -4 -19 -1 -8 3 -5 6 6 6 11 1 17 -2 13
-5z m-2457 -49 c0 -8 -8 -19 -17 -24 -10 -6 -13 -11 -7 -11 6 0 15 -10 21 -23
9 -20 8 -22 -11 -22 -12 1 -28 5 -34 9 -7 4 -19 5 -27 2 -8 -3 -17 0 -21 6 -4
6 -3 8 3 5 5 -4 20 5 31 18 12 14 29 25 38 25 11 0 14 6 9 21 -5 15 -4 19 4
15 6 -4 11 -13 11 -21z m-453 -57 c-2 -13 -4 -5 -4 17 -1 22 1 32 4 23 2 -10
2 -28 0 -40z m5433 42 c0 -5 -5 -10 -11 -10 -5 0 -7 5 -4 10 3 6 8 10 11 10 2
0 4 -4 4 -10z m-5360 -4 c0 -2 -7 -7 -16 -10 -8 -3 -12 -2 -9 4 6 10 25 14 25
6z m5413 -23 c-7 -2 -21 -2 -30 0 -10 3 -4 5 12 5 17 0 24 -2 18 -5z m-4758
-33 c-3 -5 -12 -10 -18 -10 -7 0 -6 4 3 10 19 12 23 12 15 0z m5282 -16 c-3
-3 -12 -4 -19 -1 -8 3 -5 6 6 6 11 1 17 -2 13 -5z m375 -24 c12 -11 17 -20 11
-20 -5 0 -20 9 -33 20 -13 11 -18 20 -11 20 6 0 21 -9 33 -20z m-6391 -63 c-1
-4 -1 -14 -1 -23 0 -8 -4 -12 -10 -9 -13 8 -13 48 1 43 6 -2 10 -7 10 -11z
m99 9 c0 -3 -4 -8 -10 -11 -5 -3 -10 -1 -10 4 0 6 5 11 10 11 6 0 10 -2 10 -4z
m6841 -22 c14 -17 9 -17 -25 -4 -14 5 -26 14 -26 19 0 13 37 2 51 -15z m-983
-10 c34 -4 65 -11 68 -15 3 -5 14 -9 25 -9 24 0 73 -46 59 -55 -6 -3 -9 -14
-9 -23 1 -15 2 -15 6 1 2 9 14 17 25 17 13 0 18 -5 15 -14 -4 -10 -1 -13 9 -9
16 6 73 -44 74 -65 0 -7 5 -10 12 -6 6 4 8 3 4 -4 -3 -6 -2 -13 4 -17 6 -4 8
-11 4 -16 -3 -5 -10 -7 -15 -3 -5 3 -7 9 -4 14 3 4 -2 11 -11 14 -9 4 -14 13
-10 21 3 9 0 15 -9 15 -7 0 -17 9 -20 20 -10 30 -25 24 -25 -11 0 -28 -2 -30
-32 -27 -25 2 -33 8 -31 21 1 15 -5 18 -39 16 -25 -2 -42 2 -47 10 -5 8 -14
10 -20 7 -6 -4 -11 -2 -11 3 0 6 -8 11 -18 11 -9 0 -23 9 -30 20 -7 12 -23 20
-38 20 -17 0 -23 4 -18 12 5 7 2 9 -7 6 -8 -3 -34 5 -59 18 -43 23 -43 24 -19
33 13 6 42 8 64 6 22 -2 68 -7 103 -11z m1355 -31 c-7 -2 -21 -2 -30 0 -10 3
-4 5 12 5 17 0 24 -2 18 -5z m-7321 -15 c-7 -7 -12 -28 -12 -47 0 -19 -3 -31
-7 -28 -3 4 -15 -1 -25 -10 -19 -17 -19 -16 -12 12 3 17 11 34 15 40 5 5 9 17
9 27 0 12 7 18 22 18 17 0 19 -3 10 -12z m88 -12 c0 -3 -4 -8 -10 -11 -5 -3
-10 -1 -10 4 0 6 5 11 10 11 6 0 10 -2 10 -4z m7355 -24 c-3 -3 -11 0 -18 7
-9 10 -8 11 6 5 10 -3 15 -9 12 -12z m495 -27 c7 -9 8 -15 2 -15 -5 0 -12 7
-16 15 -3 8 -4 15 -2 15 2 0 9 -7 16 -15z m-642 -12 c-10 -2 -26 -2 -35 0 -10
3 -2 5 17 5 19 0 27 -2 18 -5z m-53 -39 c11 -1 31 -3 45 -3 17 -1 21 -4 12
-10 -17 -10 -100 3 -115 19 -10 10 -7 11 13 4 14 -4 34 -8 45 -10z m-7335 -9
c0 -8 -10 -19 -21 -26 -22 -11 -21 -3 4 29 12 16 17 15 17 -3z m423 -10 c-3
-9 -8 -14 -10 -11 -3 3 -2 9 2 15 9 16 15 13 8 -4z m5877 11 c0 -3 -4 -8 -10
-11 -5 -3 -10 -1 -10 4 0 6 5 11 10 11 6 0 10 -2 10 -4z m-5826 -29 c4 4 4 0
0 -10 -6 -17 -7 -17 -20 0 -7 10 -13 23 -13 28 0 6 6 2 13 -7 7 -10 16 -15 20
-11z m5824 -2 c1 -1 -5 -5 -15 -7 -10 -3 -24 1 -32 9 -10 12 -8 13 16 7 15 -4
29 -8 31 -9z m1155 8 c-7 -2 -19 -2 -25 0 -7 3 -2 5 12 5 14 0 19 -2 13 -5z
m107 -3 c0 -13 -11 -13 -30 0 -12 8 -11 10 8 10 12 0 22 -4 22 -10z m-7559
-33 c-13 -13 -26 -3 -16 12 3 6 11 8 17 5 6 -4 6 -10 -1 -17z m515 -14 c-10
-10 -19 5 -10 18 6 11 8 11 12 0 2 -7 1 -15 -2 -18z m-326 10 c0 -5 -5 -15
-10 -23 -8 -12 -10 -11 -10 8 0 12 5 22 10 22 6 0 10 -3 10 -7z m-260 -8 c0
-12 -33 -55 -41 -55 -14 0 -10 22 8 42 15 17 33 24 33 13z m7928 -23 c6 -18
-15 -14 -22 4 -4 10 -1 14 6 12 6 -2 14 -10 16 -16z m-7883 -12 c3 -5 2 -10
-4 -10 -5 0 -13 5 -16 10 -3 6 -2 10 4 10 5 0 13 -4 16 -10z m8152 -5 c0 -8
-4 -12 -9 -9 -5 3 -6 10 -3 15 9 13 12 11 12 -6z m-8302 -14 c-3 -6 -11 -8
-17 -5 -6 4 -5 9 3 15 16 10 23 4 14 -10z m45 5 c0 -3 -4 -8 -10 -11 -5 -3
-10 -1 -10 4 0 6 5 11 10 11 6 0 10 -2 10 -4z m7934 -17 c-6 -11 -24 -2 -24
11 0 5 7 7 15 4 8 -4 12 -10 9 -15z m-7868 -16 c-19 -19 -30 -23 -38 -15 -19
19 -1 42 33 42 l32 0 -27 -27z m7266 8 c14 -16 14 -20 2 -25 -12 -4 -34 20
-34 38 0 12 16 5 32 -13z m304 -19 c-7 -7 -46 9 -46 18 0 5 11 4 25 -2 14 -6
23 -13 21 -16z m-335 -17 c16 -4 29 -12 29 -20 0 -7 14 -18 32 -26 17 -7 26
-15 20 -17 -7 -2 -9 -9 -5 -15 7 -12 -24 8 -42 28 -23 24 -89 64 -98 58 -5 -3
-4 -9 3 -13 8 -5 9 -10 2 -14 -23 -14 -24 18 -1 37 20 16 24 17 27 4 2 -9 16
-19 33 -22z m769 25 c0 -5 -4 -10 -10 -10 -5 0 -10 5 -10 10 0 6 5 10 10 10 6
0 10 -4 10 -10z m50 -21 c0 -5 -4 -9 -10 -9 -5 0 -10 7 -10 16 0 8 5 12 10 9
6 -3 10 -10 10 -16z m-730 -14 c13 -15 5 -39 -11 -30 -5 4 -14 15 -19 26 -8
15 -7 19 3 19 8 0 20 -7 27 -15z m-120 -35 c0 -13 -5 -18 -15 -14 -16 7 -19
17 -8 27 12 13 23 7 23 -13z m-7140 1 c0 -11 -45 -41 -62 -41 -7 0 1 11 17 25
32 26 45 31 45 16z m7308 -69 c-3 -18 -17 -32 -32 -32 -5 0 -3 7 4 15 10 12 9
16 -6 22 -16 6 -16 7 2 13 24 9 35 3 32 -18z m-7388 -18 c0 -8 -4 -12 -10 -9
-5 3 -10 13 -10 21 0 8 5 12 10 9 6 -3 10 -13 10 -21z m7430 -34 c0 -5 -9 -6
-19 -3 -12 3 -17 11 -14 19 4 11 9 12 19 3 8 -6 14 -15 14 -19z m-3470 -13 c0
-18 5 -38 10 -43 8 -8 2 -11 -17 -12 -30 0 -81 33 -69 46 8 7 13 8 41 11 8 0
15 6 15 12 0 5 -5 7 -12 3 -7 -4 -8 -3 -4 4 15 25 36 12 36 -21z m3260 19 c0
-2 -7 -7 -16 -10 -8 -3 -12 -2 -9 4 6 10 25 14 25 6z m-3204 -31 c16 -8 40
-15 53 -15 19 0 21 -3 12 -14 -7 -8 -23 -17 -36 -20 -14 -4 -25 -11 -25 -17 0
-6 -5 -7 -10 -4 -8 5 -8 11 0 20 9 11 6 17 -14 30 -47 31 -30 46 20 20z m3394
-12 c0 -9 6 -13 15 -9 9 3 15 0 15 -9 0 -7 13 -16 29 -20 19 -4 28 -11 25 -19
-3 -8 2 -16 11 -20 9 -3 13 -10 10 -16 -3 -5 5 -14 19 -20 35 -13 33 -20 -5
-15 -24 3 -29 1 -25 -11 3 -8 2 -12 -3 -9 -6 3 -14 -3 -20 -12 -6 -10 -11 -13
-11 -7 0 5 4 14 9 20 5 5 12 19 16 32 5 16 2 22 -10 22 -9 0 -13 5 -10 10 8
12 -18 40 -37 40 -15 0 -68 56 -61 64 9 9 33 -6 33 -21z m-50 7 c0 -5 -5 -10
-11 -10 -5 0 -7 5 -4 10 3 6 8 10 11 10 2 0 4 -4 4 -10z m880 -55 c-7 -9 -15
-13 -17 -11 -7 7 7 26 19 26 6 0 6 -6 -2 -15z m-4286 -11 c3 -8 2 -12 -4 -9
-6 3 -10 10 -10 16 0 14 7 11 14 -7z m1442 -20 c-9 -8 -16 -11 -16 -4 0 15 24
40 28 29 2 -5 -4 -16 -12 -25z m2564 -5 c0 -5 -9 -9 -20 -9 -19 0 -26 11 -14
23 8 8 34 -3 34 -14z m-520 -49 c0 -5 -2 -10 -4 -10 -3 0 -8 5 -11 10 -3 6 -1
10 4 10 6 0 11 -4 11 -10z m140 -36 c0 -8 5 -14 10 -14 6 0 10 -7 10 -17 0 -9
3 -13 7 -10 6 6 98 -71 98 -83 0 -3 15 -20 32 -39 18 -19 30 -38 27 -42 -2 -4
4 -16 15 -26 23 -21 39 -73 22 -73 -6 0 -11 3 -11 8 0 4 -13 16 -30 27 -19 13
-28 26 -25 36 4 10 -10 32 -36 58 -44 44 -59 50 -59 26 0 -8 5 -15 12 -15 6 0
8 -3 5 -6 -4 -4 -23 10 -44 31 -29 29 -32 35 -12 22 15 -9 36 -13 48 -10 25 6
27 18 6 27 -8 3 -15 1 -15 -4 0 -6 -4 -10 -9 -10 -5 0 -7 9 -4 20 4 14 1 19
-8 15 -8 -3 -22 7 -34 24 -10 16 -22 29 -26 28 -4 -1 -7 2 -7 7 0 5 -6 13 -14
17 -10 7 -9 9 5 9 9 0 17 5 17 11 0 5 5 7 10 4 6 -3 10 -13 10 -21z m-25 -57
c13 -14 15 -21 6 -30 -8 -8 -11 -8 -11 2 0 15 -40 50 -58 51 -7 0 -11 4 -7 9
6 11 44 -6 70 -32z m-602 -71 c4 -10 1 -13 -9 -9 -7 3 -14 9 -14 14 0 14 17
10 23 -5z m745 -82 c-10 -10 -28 6 -28 24 0 15 1 15 17 -1 9 -9 14 -19 11 -23z
m25 -46 c6 -22 5 -22 -8 -4 -17 22 -20 40 -6 32 5 -3 11 -16 14 -28z m111 -70
c-1 -13 -3 -27 -3 -33 -1 -5 -8 1 -17 13 -12 18 -13 26 -4 37 16 19 27 11 24
-17z m-34 -323 c0 -8 -2 -15 -4 -15 -2 0 -6 7 -10 15 -3 8 -1 15 4 15 6 0 10
-7 10 -15z m57 -17 c-3 -7 -5 -2 -5 12 0 14 2 19 5 13 2 -7 2 -19 0 -25z
m-5720 0 c-3 -8 -6 -5 -6 6 -1 11 2 17 5 13 3 -3 4 -12 1 -19z m5713 -29 c7
-11 9 -27 6 -35 -3 -7 2 -18 12 -23 9 -5 13 -13 9 -17 -4 -4 0 -16 10 -26 17
-19 15 -22 -11 -12 -9 3 -16 11 -16 17 0 6 -9 21 -21 33 -24 25 -32 84 -12 84
7 0 17 -9 23 -21z m457 -125 c-3 -3 -12 -4 -19 -1 -8 3 -5 6 6 6 11 1 17 -2
13 -5z m-6147 -100 c0 -7 7 -25 15 -40 8 -16 15 -36 15 -44 0 -12 -2 -12 -14
0 -16 18 -46 94 -46 117 0 14 2 14 15 -3 8 -10 15 -24 15 -30z m2540 17 c0 -6
-4 -13 -10 -16 -5 -3 -10 1 -10 9 0 9 5 16 10 16 6 0 10 -4 10 -9z m-1580 -35
c0 -3 -4 -8 -10 -11 -5 -3 -10 -1 -10 4 0 6 5 11 10 11 6 0 10 -2 10 -4z
m1545 -18 c6 -4 2 -8 -7 -8 -10 0 -18 7 -18 17 0 9 3 12 8 7 4 -5 12 -12 17
-16z m-45 -4 c0 -8 -4 -12 -10 -9 -5 3 -10 10 -10 16 0 5 5 9 10 9 6 0 10 -7
10 -16z m-90 -19 c0 -8 -4 -15 -10 -15 -5 0 -10 7 -10 15 0 8 5 15 10 15 6 0
10 -7 10 -15z m-1380 -5 c0 -5 -4 -10 -10 -10 -5 0 -10 5 -10 10 0 6 5 10 10
10 6 0 10 -4 10 -10z m1496 -17 c-10 -10 -19 5 -10 18 6 11 8 11 12 0 2 -7 1
-15 -2 -18z m-1466 -24 c0 -6 -4 -7 -10 -4 -5 3 -10 11 -10 16 0 6 5 7 10 4 6
-3 10 -11 10 -16z m4655 11 c3 -5 1 -10 -4 -10 -6 0 -11 5 -11 10 0 6 2 10 4
10 3 0 8 -4 11 -10z m45 -44 c0 -3 -4 -8 -10 -11 -5 -3 -10 -1 -10 4 0 6 5 11
10 11 6 0 10 -2 10 -4z m-5602 -93 c21 -32 42 -65 45 -73 4 -8 27 -46 51 -85
25 -38 58 -93 75 -121 17 -28 49 -71 71 -95 44 -48 46 -56 26 -84 -12 -17 -12
-21 5 -33 10 -7 19 -18 19 -23 0 -6 11 -25 24 -42 13 -18 27 -42 30 -54 4 -12
19 -28 33 -35 40 -20 61 -56 83 -142 11 -43 24 -84 30 -90 5 -7 11 -32 12 -56
3 -42 2 -44 -31 -52 -28 -8 -37 -6 -53 10 -17 17 -46 124 -68 252 -7 44 -7 44
-9 10 -5 -80 -15 -74 -70 45 -29 63 -64 126 -77 140 -12 13 -18 27 -13 30 18
12 9 26 -12 20 -15 -5 -22 -2 -26 15 -4 13 -16 23 -34 27 -16 3 -26 9 -23 14
3 5 0 9 -6 9 -7 0 -10 6 -7 13 2 6 10 12 18 12 8 0 14 6 13 13 -3 37 -5 42
-18 42 -8 0 -17 -7 -20 -16 -7 -18 -19 -12 -22 11 -1 10 6 15 22 15 13 0 24 4
24 9 0 12 -30 22 -43 14 -6 -4 -8 0 -4 10 3 9 1 19 -4 23 -6 3 -9 15 -6 25 3
10 1 19 -5 21 -5 2 -11 17 -12 33 -2 16 -8 31 -14 33 -5 1 -8 11 -5 21 2 9 -3
23 -12 31 -14 12 -14 15 1 32 17 18 16 19 -13 30 -20 8 -31 18 -31 32 0 12 -1
26 -2 31 -12 53 14 43 58 -22z m2287 28 c-6 -5 -25 10 -25 20 0 5 6 4 14 -3 8
-7 12 -15 11 -17z m-51 -33 c-11 -17 -24 -6 -24 19 0 26 1 26 14 8 8 -11 12
-23 10 -27z m-1271 -14 c-12 -18 -13 -25 -4 -20 11 7 13 3 7 -20 -6 -23 -5
-27 5 -16 15 14 29 16 29 3 0 -16 -41 -20 -47 -5 -3 8 -11 14 -19 14 -20 0
-17 13 9 53 12 19 26 31 30 27 5 -4 1 -21 -10 -36z m-177 -11 c16 -22 17 -33
4 -33 -5 0 -10 7 -10 15 0 8 -4 15 -10 15 -5 0 -10 5 -10 10 0 15 11 12 26 -7z
m221 2 c8 -22 -6 -33 -17 -15 -13 20 -12 30 0 30 6 0 13 -7 17 -15z m1113 -17
c0 -4 -6 -5 -14 -2 -8 3 -12 12 -9 21 5 12 7 12 14 1 5 -7 9 -16 9 -20z m-30
-29 c0 -5 -4 -9 -10 -9 -5 0 -10 7 -10 16 0 8 5 12 10 9 6 -3 10 -10 10 -16z
m35 1 c3 -5 1 -10 -4 -10 -6 0 -11 5 -11 10 0 6 2 10 4 10 3 0 8 -4 11 -10z
m-1295 -30 c0 -11 -2 -20 -4 -20 -2 0 -6 9 -9 20 -3 11 -1 20 4 20 5 0 9 -9 9
-20z m90 5 c10 -12 10 -15 -2 -15 -8 0 -15 7 -15 15 0 8 1 15 2 15 2 0 8 -7
15 -15z m1141 -38 c-8 -8 -11 -5 -11 9 0 27 14 41 18 19 2 -9 -1 -22 -7 -28z
m41 11 c-7 -7 -12 -8 -12 -2 0 14 12 26 19 19 2 -3 -1 -11 -7 -17z m-1242 -13
c0 -8 -2 -15 -4 -15 -2 0 -6 7 -10 15 -3 8 -1 15 4 15 6 0 10 -7 10 -15z m85
5 c3 -5 1 -10 -4 -10 -6 0 -11 5 -11 10 0 6 2 10 4 10 3 0 8 -4 11 -10z m1086
-67 c-12 -20 -14 -14 -5 12 4 9 9 14 11 11 3 -2 0 -13 -6 -23z m-1591 -253 c0
-5 -4 -10 -10 -10 -5 0 -10 5 -10 10 0 6 5 10 10 10 6 0 10 -4 10 -10z m20
-101 c0 -14 -17 -10 -23 5 -4 10 -1 13 9 9 7 -3 14 -9 14 -14z m2763 -33 c19
-7 48 -32 66 -55 26 -33 33 -50 33 -87 0 -29 -7 -52 -18 -65 -17 -19 -50 -27
-40 -10 3 5 -1 14 -9 21 -8 7 -15 27 -15 46 0 23 -9 44 -30 67 -34 40 -89 56
-103 32 -11 -20 -27 -19 -27 3 1 54 73 78 143 48z m-2793 -30 c0 -8 -4 -18
-10 -21 -5 -3 -10 3 -10 14 0 12 5 21 10 21 6 0 10 -6 10 -14z m30 -16 c0 -5
-5 -10 -11 -10 -5 0 -7 5 -4 10 3 6 8 10 11 10 2 0 4 -4 4 -10z m-3110 -140
c0 -5 -12 -10 -26 -10 -14 0 -23 4 -19 10 3 6 15 10 26 10 10 0 19 -4 19 -10z
m6420 -79 c0 -12 -20 -25 -27 -18 -7 7 6 27 18 27 5 0 9 -4 9 -9z m-5845 -11
c3 -6 -1 -7 -9 -4 -18 7 -21 14 -7 14 6 0 13 -4 16 -10z m6081 -32 c31 -9 53
-22 67 -42 12 -18 15 -26 6 -21 -7 4 -4 -3 9 -17 25 -27 29 -53 9 -61 -9 -3
-13 -17 -11 -39 3 -26 2 -28 -4 -9 -7 21 -9 22 -21 7 -19 -23 -31 -20 -31 9 0
15 6 25 15 25 9 0 12 6 9 15 -4 8 -1 22 5 29 8 9 8 16 2 20 -5 4 -11 -1 -13
-10 -3 -14 -6 -13 -22 5 -19 21 -19 21 8 21 15 0 25 4 21 9 -3 5 -25 7 -50 5
-28 -3 -45 -1 -45 5 0 6 -5 11 -10 11 -6 0 -10 -8 -8 -17 2 -10 -4 -18 -12
-19 -8 0 -23 -5 -34 -9 -10 -4 -21 -4 -25 2 -3 5 -15 13 -26 17 -19 8 -19 8 3
17 12 5 25 15 28 24 4 8 12 15 20 15 8 0 14 5 14 10 0 14 40 13 96 -2z m-1517
-52 c27 -108 2 -164 -56 -126 -33 21 -31 76 4 129 15 23 30 41 34 41 3 0 12
-20 18 -44z m-4493 -4 c-9 -8 -26 10 -26 26 1 15 2 15 15 -2 8 -11 13 -21 11
-24z m46 -79 c6 -7 5 -14 -2 -18 -13 -8 -30 34 -21 55 4 12 6 10 9 -5 2 -11 8
-25 14 -32z m2496 4 c7 -5 12 -32 12 -63 0 -43 -4 -56 -22 -68 -28 -20 -36
-11 -48 50 -5 27 -12 61 -16 76 -6 27 -5 28 27 22 19 -4 40 -11 47 -17z m3238
-102 c1 -9 -3 -14 -9 -12 -7 2 -13 14 -13 26 -1 16 2 19 9 12 6 -6 12 -18 13
-26z m257 10 c0 -6 -7 -11 -16 -13 -12 -3 -15 1 -11 13 7 17 25 17 27 0z"/>
<path d="M4321 7221 c-7 -5 -11 -14 -7 -20 7 -11 46 7 46 21 0 11 -22 10 -39
-1z"/>
<path d="M4166 7192 c-7 -11 4 -52 14 -52 10 0 10 49 -1 55 -4 3 -10 2 -13 -3z"/>
<path d="M4217 7189 c-14 -8 -16 -14 -6 -25 10 -12 14 -12 25 3 24 32 15 42
-19 22z"/>
<path d="M4100 7140 c0 -14 25 -40 39 -40 6 0 11 -5 11 -11 0 -6 -6 -9 -12 -6
-7 2 -25 -2 -40 -9 -17 -9 -29 -10 -33 -4 -3 6 3 10 14 10 14 0 21 6 21 20 0
34 -27 22 -85 -36 -78 -78 -115 -160 -115 -259 0 -73 15 -152 41 -210 18 -39
89 -135 101 -135 10 0 -7 36 -22 45 -12 7 -4 25 11 25 5 0 9 -9 9 -19 0 -13 9
-21 30 -26 16 -4 29 -10 27 -13 -3 -12 83 -96 90 -88 5 4 0 12 -8 17 -9 5 -20
21 -24 36 -6 27 -43 85 -57 91 -4 2 -8 14 -8 26 0 13 -9 31 -20 41 -11 10 -20
29 -20 43 0 23 -3 24 -36 19 -30 -5 -34 -4 -24 8 7 8 19 15 26 15 20 0 17 17
-3 30 -17 9 -17 11 -1 20 16 10 16 13 3 34 -9 13 -13 30 -10 38 4 9 -4 19 -20
26 -33 15 -32 32 2 32 26 0 26 1 7 15 -19 14 -19 15 4 21 26 8 28 19 5 32 -15
9 -14 10 4 16 11 4 28 15 38 26 17 19 17 20 -6 29 -22 9 -23 10 -3 10 12 1 33
10 47 21 14 11 32 20 40 20 29 0 51 48 33 71 -14 21 -56 34 -56 19z m-65 -100
c-3 -5 -11 -10 -16 -10 -6 0 -7 5 -4 10 3 6 11 10 16 10 6 0 7 -4 4 -10z m-30
-60 c3 -5 1 -10 -4 -10 -6 0 -11 5 -11 10 0 6 2 10 4 10 3 0 8 -4 11 -10z
m-29 -365 c4 -10 11 -12 18 -7 6 5 20 12 30 16 16 5 17 4 6 -9 -7 -8 -16 -13
-20 -10 -5 3 -11 1 -15 -5 -10 -17 -32 -11 -38 10 -6 23 11 27 19 5z m41 -60
c8 -23 -4 -30 -22 -12 -19 20 -19 27 0 27 9 0 18 -7 22 -15z"/>
<path d="M4226 7125 c-3 -9 0 -15 9 -15 8 0 15 7 15 15 0 8 -4 15 -9 15 -5 0
-11 -7 -15 -15z"/>
<path d="M4465 7110 c3 -5 11 -10 16 -10 6 0 7 5 4 10 -3 6 -11 10 -16 10 -6
0 -7 -4 -4 -10z"/>
<path d="M4513 7093 c9 -2 17 -9 17 -14 0 -5 10 -9 23 -9 20 0 20 1 -7 15 -15
8 -33 14 -40 14 -6 -1 -3 -3 7 -6z"/>
<path d="M3594 7075 c-3 -8 -4 -20 -1 -27 3 -7 6 -3 6 9 1 12 7 24 14 26 9 4
9 6 -1 6 -7 1 -15 -6 -18 -14z"/>
<path d="M4198 7073 c-15 -2 -47 -24 -71 -47 -50 -51 -73 -120 -62 -188 7 -42
30 -76 43 -64 3 4 0 11 -8 16 -11 7 -12 14 -3 33 7 14 10 38 8 54 -3 22 2 31
21 40 13 6 24 7 24 3 0 -4 11 -3 25 3 24 12 35 37 15 37 -5 0 -10 -4 -10 -10
0 -14 -29 0 -40 20 -8 14 -5 16 15 12 18 -3 25 0 25 11 0 8 12 20 28 25 24 9
25 10 5 11 -13 1 -23 6 -23 11 0 14 138 13 181 -1 19 -6 54 -20 78 -31 23 -10
50 -17 60 -15 10 2 2 9 -24 21 -116 50 -217 71 -287 59z"/>
<path d="M5171 7043 c-1 -13 4 -23 9 -23 6 0 10 -9 10 -20 0 -11 7 -20 15 -20
8 0 15 5 15 10 0 6 -4 10 -8 10 -5 0 -16 15 -25 33 -14 28 -16 29 -16 10z"/>
<path d="M4549 6954 c25 -14 56 -36 69 -49 14 -14 32 -25 41 -25 23 0 -33 50
-88 78 -60 30 -77 28 -22 -4z"/>
<path d="M4610 6973 c0 -8 24 -27 57 -45 38 -22 49 -23 29 -3 -8 8 -19 15 -25
15 -6 0 -11 3 -11 8 0 4 -11 12 -25 19 -14 6 -25 9 -25 6z"/>
<path d="M4360 6940 c0 -12 26 -19 39 -10 9 5 4 9 -13 12 -14 3 -26 2 -26 -2z"/>
<path d="M3520 6896 c0 -9 30 -14 35 -6 4 6 -3 10 -14 10 -12 0 -21 -2 -21 -4z"/>
<path d="M4130 6875 c0 -14 5 -25 10 -25 6 0 10 11 10 25 0 14 -4 25 -10 25
-5 0 -10 -11 -10 -25z"/>
<path d="M4590 6850 c45 -39 64 -39 20 0 -18 17 -38 30 -44 30 -6 -1 5 -14 24
-30z"/>
<path d="M3486 6835 c4 -8 8 -15 10 -15 2 0 4 7 4 15 0 8 -4 15 -10 15 -5 0
-7 -7 -4 -15z"/>
<path d="M4784 6750 c-18 -49 -39 -64 -50 -35 -4 8 -10 15 -16 15 -5 0 -7 -4
-4 -9 4 -5 3 -16 0 -25 -5 -13 -9 -14 -20 -5 -8 7 -17 9 -20 6 -3 -3 4 -10 15
-17 32 -17 25 -33 -24 -60 -25 -14 -45 -27 -45 -31 0 -16 15 -17 39 0 29 20
47 18 61 -8 7 -14 5 -18 -8 -18 -9 0 -21 5 -25 11 -8 10 -7 3 4 -44 3 -10 -3
-15 -16 -15 -13 0 -20 6 -19 18 1 9 -5 17 -13 17 -10 0 -14 -7 -10 -20 4 -15
0 -20 -14 -20 -11 0 -37 -11 -59 -25 -22 -14 -45 -25 -51 -25 -7 0 -9 -3 -6
-7 4 -3 -2 -13 -13 -20 -18 -13 -25 -12 -55 6 -40 23 -55 11 -24 -20 19 -19
28 -21 76 -15 30 4 80 19 111 35 32 16 73 37 92 47 33 16 110 91 110 107 0 4
7 7 16 7 8 0 13 4 9 9 -3 5 0 13 6 16 6 4 8 18 4 33 -4 16 -1 28 7 33 10 7 10
11 0 21 -9 9 -12 9 -12 0 0 -7 -7 -12 -16 -12 -13 0 -15 8 -9 50 4 28 5 50 2
50 -3 0 -13 -22 -23 -50z m36 -84 c0 -7 -11 -21 -24 -29 -21 -14 -26 -15 -37
-1 -14 17 -12 20 21 33 34 13 40 13 40 -3z m-82 -51 c-3 -3 -9 2 -12 12 -6 14
-5 15 5 6 7 -7 10 -15 7 -18z"/>
<path d="M4190 6610 c20 -13 33 -13 25 0 -3 6 -14 10 -23 10 -15 0 -15 -2 -2
-10z"/>
<path d="M4845 6600 c-3 -5 -1 -10 4 -10 6 0 11 5 11 10 0 6 -2 10 -4 10 -3 0
-8 -4 -11 -10z"/>
<path d="M5835 6570 c3 -5 8 -10 11 -10 2 0 4 5 4 10 0 6 -5 10 -11 10 -5 0
-7 -4 -4 -10z"/>
<path d="M4820 6550 c0 -21 17 -46 25 -38 4 4 0 17 -9 30 -10 14 -16 17 -16 8z"/>
<path d="M4520 6508 c0 -19 2 -20 10 -8 13 19 13 30 0 30 -5 0 -10 -10 -10
-22z"/>
<path d="M4146 6505 c4 -8 8 -15 10 -15 2 0 4 7 4 15 0 8 -4 15 -10 15 -5 0
-7 -7 -4 -15z"/>
<path d="M4253 6513 c-22 -8 -14 -39 22 -93 19 -29 35 -54 35 -56 0 -9 55 -53
65 -53 6 0 -5 13 -24 30 l-33 31 21 19 c25 24 25 22 6 59 -8 16 -25 30 -37 32
-15 2 -22 9 -22 21 2 17 -9 20 -33 10z m70 -80 c3 -15 3 -33 0 -41 -9 -22 -23
6 -23 46 0 38 15 35 23 -5z"/>
<path d="M4421 6494 c-7 -8 -11 -17 -8 -20 8 -9 37 8 37 22 0 18 -11 17 -29
-2z"/>
<path d="M4740 6468 c-45 -12 -54 -22 -42 -44 9 -16 10 -16 16 4 5 16 15 22
35 22 31 0 59 -24 41 -35 -6 -3 -8 -11 -5 -16 4 -5 15 -3 28 6 12 8 31 15 42
16 17 0 17 2 -5 11 -14 5 -31 11 -37 12 -7 1 -19 9 -25 18 -10 12 -20 13 -48
6z"/>
<path d="M4835 6460 c-3 -5 -2 -10 4 -10 5 0 13 5 16 10 3 6 2 10 -4 10 -5 0
-13 -4 -16 -10z"/>
<path d="M4085 6418 c30 -36 45 -46 45 -29 0 5 -17 21 -37 37 l-38 28 30 -36z"/>
<path d="M4465 6440 c4 -6 11 -8 16 -5 14 9 11 15 -7 15 -8 0 -12 -5 -9 -10z"/>
<path d="M4742 6365 c-10 -12 -10 -15 1 -15 8 0 20 7 27 15 17 21 -10 20 -28
0z"/>
<path d="M4824 6372 c-7 -4 -8 -15 -3 -27 6 -17 8 -17 8 -2 1 9 6 17 11 17 6
0 10 5 10 10 0 12 -10 13 -26 2z"/>
<path d="M4217 6364 c-3 -3 4 -16 16 -28 12 -11 22 -27 22 -35 0 -8 7 -16 15
-18 13 -4 13 -3 0 6 -8 5 -11 13 -7 17 7 7 -23 64 -33 64 -4 0 -9 -3 -13 -6z"/>
<path d="M4663 6345 c-12 -8 -28 -12 -37 -9 -11 4 -16 1 -16 -10 0 -31 31 -30
63 3 33 32 27 42 -10 16z"/>
<path d="M4406 6325 c10 -26 33 -49 41 -41 4 4 -5 19 -21 34 -22 22 -26 23
-20 7z"/>
<path d="M4760 6330 c0 -5 -7 -10 -15 -10 -8 0 -15 -4 -15 -10 0 -5 5 -10 11
-10 8 0 8 -4 0 -14 -7 -8 -23 -13 -36 -12 -16 2 -25 -3 -28 -15 -3 -12 -14
-19 -28 -19 -12 0 -31 -7 -41 -16 -13 -12 -21 -14 -31 -6 -8 7 -18 7 -27 2
-22 -14 -119 -11 -162 4 -50 18 -49 5 2 -18 72 -32 94 -34 171 -20 91 17 85
15 139 43 47 24 89 61 70 61 -6 0 -8 5 -5 10 4 6 11 8 16 5 5 -4 9 3 9 14 0
12 -7 21 -15 21 -8 0 -15 -4 -15 -10z"/>
<path d="M4520 6315 c0 -8 4 -15 10 -15 5 0 7 7 4 15 -4 8 -8 15 -10 15 -2 0
-4 -7 -4 -15z"/>
<path d="M4465 6311 c-3 -5 -1 -12 5 -16 5 -3 10 1 10 9 0 18 -6 21 -15 7z"/>
<path d="M4563 6279 c14 -8 22 -8 30 0 8 8 3 11 -18 11 -26 -1 -28 -2 -12 -11z"/>
<path d="M4477 6073 c-3 -27 -13 -79 -21 -118 -24 -106 -23 -115 18 -115 32 0
35 3 40 38 16 109 6 242 -19 242 -7 0 -15 -18 -18 -47z"/>
<path d="M4101 5264 c0 -11 3 -14 6 -6 3 7 2 16 -1 19 -3 4 -6 -2 -5 -13z"/>
<path d="M4046 5105 c-3 -8 -1 -15 4 -15 6 0 10 7 10 15 0 8 -2 15 -4 15 -2 0
-6 -7 -10 -15z"/>
<path d="M4009 5043 c-8 -16 -20 -34 -26 -41 -15 -16 -17 -32 -4 -32 13 0 29
22 36 53 4 15 11 27 16 27 5 0 9 5 9 10 0 19 -17 10 -31 -17z"/>
<path d="M6053 5220 c0 -25 2 -35 4 -22 2 12 2 32 0 45 -2 12 -4 2 -4 -23z"/>
<path d="M6002 5140 c0 -14 2 -19 5 -12 2 6 2 18 0 25 -3 6 -5 1 -5 -13z"/>
<path d="M6037 5144 c-4 -4 -7 -17 -7 -28 1 -19 1 -20 11 -3 11 19 8 43 -4 31z"/>
<path d="M5981 5064 c0 -11 3 -14 6 -6 3 7 2 16 -1 19 -3 4 -6 -2 -5 -13z"/>
<path d="M5942 4990 c-26 -28 -37 -73 -23 -97 10 -17 10 -17 11 0 0 9 4 17 10
17 5 0 7 7 4 15 -4 8 1 27 11 41 23 35 14 53 -13 24z"/>
<path d="M5991 4968 c-7 -21 -10 -46 -8 -55 3 -12 5 -8 6 9 0 14 6 28 12 30 6
2 9 15 7 28 -3 23 -5 22 -17 -12z"/>
<path d="M5882 4871 c-7 -16 -24 -41 -37 -55 -14 -15 -25 -31 -25 -37 0 -5 -4
-9 -10 -9 -5 0 -10 8 -10 17 0 12 -3 14 -11 6 -8 -8 -7 -17 2 -31 18 -28 5
-39 -18 -16 -17 17 -18 17 -23 -15 -3 -17 -9 -31 -14 -31 -5 1 -12 -4 -17 -12
-6 -10 -11 -9 -23 7 -15 19 -15 19 -16 -7 0 -16 5 -28 10 -28 21 0 9 -20 -15
-26 -14 -3 -25 -10 -25 -15 0 -17 -18 -9 -23 11 -3 13 1 21 14 25 20 7 25 20
10 30 -11 6 -51 -47 -51 -68 0 -24 -53 -41 -92 -28 -18 6 -58 9 -88 7 -68 -5
-128 17 -136 51 -6 23 -24 32 -24 13 0 -17 -43 -11 -80 11 -19 12 -52 35 -73
51 -64 51 -52 24 22 -48 76 -73 57 -65 301 -130 75 -20 245 -21 264 -1 8 8 44
29 81 48 36 18 65 38 65 46 0 18 -20 16 -41 -3 -11 -10 -19 -12 -24 -5 -3 6
-1 11 5 11 12 0 40 24 40 35 0 4 20 35 45 69 49 69 53 78 30 70 -19 -8 -19 7
0 32 15 20 20 54 7 54 -4 0 -13 -13 -20 -29z m-32 -111 c0 -5 -5 -10 -11 -10
-5 0 -7 5 -4 10 3 6 8 10 11 10 2 0 4 -4 4 -10z m-573 -126 c-3 -3 -12 -4 -19
-1 -8 3 -5 6 6 6 11 1 17 -2 13 -5z"/>
<path d="M5961 4874 c0 -11 3 -14 6 -6 3 7 2 16 -1 19 -3 4 -6 -2 -5 -13z"/>
<path d="M5378 4613 c7 -3 16 -2 19 1 4 3 -2 6 -13 5 -11 0 -14 -3 -6 -6z"/>
<path d="M5079 4525 c-4 -3 7 -29 22 -58 16 -29 33 -62 39 -75 5 -12 19 -43
31 -70 12 -26 30 -66 40 -89 10 -23 23 -45 29 -48 19 -12 10 25 -24 92 -80
160 -101 214 -85 225 11 8 10 9 -5 4 -11 -4 -23 0 -30 9 -6 9 -14 13 -17 10z"/>
<path d="M5260 4157 c0 -8 10 -17 22 -20 30 -8 30 -5 2 16 -19 14 -24 15 -24
4z"/>
<path d="M4937 4003 c-4 -3 -7 -11 -7 -17 0 -6 5 -5 12 2 6 6 9 14 7 17 -3 3
-9 2 -12 -2z"/>
<path d="M4971 3904 c0 -11 3 -14 6 -6 3 7 2 16 -1 19 -3 4 -6 -2 -5 -13z"/>
<path d="M5240 3621 c0 -6 5 -13 10 -16 6 -3 10 1 10 9 0 9 -4 16 -10 16 -5 0
-10 -4 -10 -9z"/>
<path d="M6810 4080 c0 -5 4 -10 9 -10 6 0 13 5 16 10 3 6 -1 10 -9 10 -9 0
-16 -4 -16 -10z"/>
<path d="M7068 4013 c7 -3 16 -2 19 1 4 3 -2 6 -13 5 -11 0 -14 -3 -6 -6z"/>
<path d="M7160 3934 c0 -8 5 -12 10 -9 6 3 10 10 10 16 0 5 -4 9 -10 9 -5 0
-10 -7 -10 -16z"/>
<path d="M7245 3930 c-3 -5 -1 -10 4 -10 6 0 11 5 11 10 0 6 -2 10 -4 10 -3 0
-8 -4 -11 -10z"/>
<path d="M990 3988 c0 -8 39 -32 53 -33 4 0 11 -5 15 -11 4 -6 16 -8 26 -4 14
4 16 9 8 14 -7 4 -9 13 -5 19 5 9 3 9 -8 0 -18 -15 -60 -6 -53 11 3 7 -4 12
-16 12 -11 0 -20 -4 -20 -8z"/>
<path d="M1037 3859 c4 -13 8 -18 11 -10 2 7 -1 18 -6 23 -8 8 -9 4 -5 -13z"/>
<path d="M1200 3850 c0 -5 5 -10 10 -10 6 0 10 5 10 10 0 6 -4 10 -10 10 -5 0
-10 -4 -10 -10z"/>
<path d="M6371 3674 c0 -11 3 -14 6 -6 3 7 2 16 -1 19 -3 4 -6 -2 -5 -13z"/>
<path d="M6863 3623 c9 -9 20 -13 24 -9 4 4 1 11 -7 16 -25 16 -35 11 -17 -7z"/>
<path d="M6942 3588 c3 -7 10 -13 16 -13 5 0 14 -4 19 -8 4 -5 23 -15 41 -23
36 -15 71 -39 136 -96 47 -41 56 -45 56 -25 0 14 -52 57 -69 57 -5 0 -12 9
-16 19 -3 11 -21 25 -40 31 -19 6 -35 16 -35 21 0 5 -12 9 -26 9 -14 0 -23 4
-19 9 7 12 -12 24 -43 29 -16 2 -23 -1 -20 -10z"/>
<path d="M6177 3424 c-8 -8 1 -24 14 -24 5 0 9 7 9 15 0 15 -12 20 -23 9z"/>
<path d="M7220 3386 c0 -9 5 -16 10 -16 6 0 10 4 10 9 0 6 -4 13 -10 16 -5 3
-10 -1 -10 -9z"/>
<path d="M6160 3366 c0 -9 5 -16 10 -16 6 0 10 4 10 9 0 6 -4 13 -10 16 -5 3
-10 -1 -10 -9z"/>
<path d="M6240 3340 c0 -5 5 -10 11 -10 5 0 7 5 4 10 -3 6 -8 10 -11 10 -2 0
-4 -4 -4 -10z"/>
<path d="M7262 3333 c-6 -2 -10 -9 -6 -14 8 -14 21 -11 21 6 0 8 -1 15 -1 14
-1 0 -7 -3 -14 -6z"/>
<path d="M7280 3294 c0 -3 7 -12 15 -20 8 -8 12 -21 9 -28 -3 -7 2 -16 11 -20
9 -3 14 -10 10 -15 -3 -5 -1 -12 5 -16 6 -3 10 4 10 17 1 22 1 22 15 4 8 -11
17 -17 21 -14 9 10 -15 48 -31 48 -7 0 -22 11 -33 25 -19 24 -32 32 -32 19z"/>
<path d="M7111 3264 c0 -11 3 -14 6 -6 3 7 2 16 -1 19 -3 4 -6 -2 -5 -13z"/>
<path d="M7305 3170 c-3 -5 -2 -10 4 -10 5 0 13 5 16 10 3 6 2 10 -4 10 -5 0
-13 -4 -16 -10z"/>
<path d="M7361 3064 c0 -11 3 -14 6 -6 3 7 2 16 -1 19 -3 4 -6 -2 -5 -13z"/>
<path d="M7425 3070 c3 -5 8 -10 11 -10 2 0 4 5 4 10 0 6 -5 10 -11 10 -5 0
-7 -4 -4 -10z"/>
<path d="M7477 3044 c-3 -5 1 -15 9 -22 16 -14 18 -5 5 17 -5 7 -11 9 -14 5z"/>
<path d="M8411 1497 c-6 -6 -11 -18 -10 -26 0 -11 2 -12 6 -3 6 14 33 16 33 2
0 -5 7 -10 15 -10 22 0 18 16 -9 33 -17 12 -26 13 -35 4z"/>
<path d="M8480 1435 c0 -8 7 -15 15 -15 8 0 15 7 15 15 0 8 -7 15 -15 15 -8 0
-15 -7 -15 -15z"/>
<path d="M2920 989 c0 -5 5 -7 10 -4 6 3 10 8 10 11 0 2 -4 4 -10 4 -5 0 -10
-5 -10 -11z"/>
<path d="M3304 376 c-7 -31 9 -57 26 -40 7 7 6 19 -4 39 l-15 28 -7 -27z"/>
<path d="M5961 8984 c7 -9 40 -29 73 -46 34 -17 63 -32 65 -34 3 -2 4 -28 2
-57 -1 -36 5 -64 19 -92 11 -22 16 -43 11 -48 -5 -5 -12 -4 -15 2 -12 19 -28
12 -21 -9 5 -17 2 -19 -29 -18 -45 2 -54 -7 -36 -35 7 -12 19 -32 26 -45 18
-36 45 -52 67 -40 13 6 23 6 33 -3 11 -9 18 -9 26 -1 14 14 51 -4 42 -21 -5
-8 -3 -8 7 1 11 10 11 16 1 33 -12 19 -6 50 7 32 13 -19 65 -53 80 -53 11 0 5
9 -16 26 -38 30 -43 49 -10 40 12 -4 44 -8 71 -9 29 -2 51 -8 54 -16 3 -8 8
-7 18 6 17 23 17 33 1 33 -7 0 -31 18 -52 41 l-40 40 24 20 c19 16 21 20 7 25
-9 3 -23 4 -31 0 -11 -4 -15 1 -15 17 0 12 -9 39 -20 59 -12 22 -16 40 -10 43
16 10 29 -3 51 -51 12 -24 27 -44 35 -44 8 0 14 3 14 6 0 9 -43 68 -52 72 -4
2 -8 11 -8 21 0 9 -23 40 -51 69 l-51 52 -145 0 c-131 0 -144 -2 -132 -16z"/>
<path d="M6345 8990 c3 -5 8 -10 11 -10 2 0 4 5 4 10 0 6 -5 10 -11 10 -5 0
-7 -4 -4 -10z"/>
<path d="M6430 8865 c33 -47 44 -57 33 -27 -10 27 -43 72 -54 72 -6 0 4 -20
21 -45z"/>
<path d="M6581 8644 c0 -11 3 -14 6 -6 3 7 2 16 -1 19 -3 4 -6 -2 -5 -13z"/>
<path d="M6425 8560 c-3 -6 1 -7 9 -4 18 7 21 14 7 14 -6 0 -13 -4 -16 -10z"/>
<path d="M7180 8251 c0 -6 5 -13 10 -16 6 -3 10 -10 10 -14 0 -9 -37 -8 -46 2
-17 16 -33 6 -31 -20 2 -21 -3 -28 -23 -33 l-25 -6 23 -12 c25 -14 29 -32 7
-32 -20 0 -19 -16 0 -24 9 -3 24 -25 34 -48 17 -39 17 -45 3 -60 -11 -14 -12
-21 -3 -32 6 -7 8 -22 4 -31 -5 -14 -3 -17 9 -12 9 3 29 2 45 -2 l28 -8 -28
-8 c-28 -7 -28 -7 -7 -22 33 -23 120 -53 136 -46 8 3 14 0 14 -6 0 -18 18 -13
40 11 29 31 25 46 -15 54 -41 7 -44 24 -14 62 11 15 17 28 12 29 -4 2 -7 23
-5 47 3 36 0 46 -20 62 -14 10 -24 22 -24 25 1 3 -7 14 -17 24 -10 10 -37 42
-59 72 -38 50 -58 65 -58 44z m1 -108 c13 -16 12 -17 -3 -4 -10 7 -18 15 -18
17 0 8 8 3 21 -13z m-26 -43 c3 -5 1 -10 -4 -10 -6 0 -11 5 -11 10 0 6 2 10 4
10 3 0 8 -4 11 -10z m35 -21 c0 -11 -4 -17 -10 -14 -5 3 -10 13 -10 21 0 8 5
14 10 14 6 0 10 -9 10 -21z m120 -69 c0 -5 -2 -10 -4 -10 -3 0 -8 5 -11 10 -3
6 -1 10 4 10 6 0 11 -4 11 -10z m-80 -50 c0 -5 -7 -10 -16 -10 -8 0 -12 5 -9
10 3 6 10 10 16 10 5 0 9 -4 9 -10z"/>
<path d="M8985 8142 c-12 -9 -33 -45 -66 -114 -7 -16 -18 -28 -25 -28 -20 0
-32 -52 -24 -106 14 -85 74 -164 104 -134 8 8 7 15 -6 24 -10 7 -15 15 -13 18
3 3 -8 35 -25 71 -16 37 -30 74 -30 84 0 28 46 -23 67 -73 10 -24 21 -44 26
-44 16 0 7 81 -12 101 -10 11 -18 26 -17 32 8 38 20 74 28 84 12 16 6 95 -7
85z"/>
<path d="M8734 7961 c-17 -10 -41 -33 -53 -49 -19 -27 -25 -29 -50 -22 -16 4
-32 5 -36 2 -4 -4 -13 1 -20 11 -13 18 -14 18 -24 -1 -9 -17 -19 -19 -60 -16
-36 2 -51 -1 -55 -11 -4 -12 -23 -14 -93 -10 -48 2 -80 2 -70 -1 20 -6 22 -15
5 -32 -9 -9 -4 -12 26 -12 26 0 36 -4 34 -12 -6 -18 -46 -22 -64 -8 -11 10
-19 9 -39 -4 -32 -21 -31 -25 6 -38 20 -7 28 -15 25 -25 -5 -11 2 -13 32 -7
33 6 35 5 22 -9 -8 -9 -27 -19 -42 -22 -22 -6 -28 -4 -28 10 0 9 -7 23 -15 32
-19 19 -43 2 -44 -30 0 -12 -1 -32 -1 -44 0 -12 -5 -25 -10 -28 -18 -11 -11
-35 10 -35 11 0 20 -7 20 -15 0 -7 7 -18 16 -23 18 -10 27 -91 12 -109 -8 -10
4 -12 52 -10 55 2 64 -1 82 -23 15 -19 28 -24 54 -21 19 1 34 -2 34 -8 0 -17
46 -61 65 -61 17 0 16 3 -4 24 -22 23 -22 25 -6 59 9 20 24 38 32 41 23 9 55
-23 47 -46 -4 -15 6 -31 39 -62 35 -35 42 -47 35 -60 -8 -14 -5 -21 11 -33 12
-8 19 -19 16 -24 -4 -5 -1 -9 4 -9 6 0 12 -10 12 -22 1 -18 2 -19 6 -5 4 14 8
16 19 6 8 -6 14 -19 14 -29 0 -27 63 -60 125 -66 11 -1 25 -3 30 -5 6 -2 30 0
54 4 l44 8 -5 75 c-5 73 -18 108 -32 85 -12 -18 -25 -12 -19 8 3 10 0 22 -6
25 -6 4 -11 1 -11 -6 0 -13 -50 -42 -58 -33 -3 2 3 7 12 11 9 3 16 15 16 25 0
10 7 19 15 19 11 0 13 7 9 28 -7 34 21 72 54 75 21 1 22 5 22 99 0 93 -1 99
-23 107 -20 8 -28 20 -60 88 -14 31 -30 17 -24 -21 2 -17 1 -40 -2 -50 -7 -18
-8 -18 -29 4 -12 13 -22 35 -22 48 0 21 -4 24 -25 20 -27 -6 -35 14 -12 29 26
17 39 57 27 87 -5 15 -8 31 -5 36 3 5 1 19 -4 32 -5 13 -12 35 -15 51 -8 32
-28 35 -72 8z m-57 -113 c-3 -8 -6 -5 -6 6 -1 11 2 17 5 13 3 -3 4 -12 1 -19z
m-17 -23 c0 -8 -4 -15 -10 -15 -5 0 -7 7 -4 15 4 8 8 15 10 15 2 0 4 -7 4 -15z
m-113 -151 c-3 -3 -12 -4 -19 -1 -8 3 -5 6 6 6 11 1 17 -2 13 -5z m-252 -34
c3 -5 -1 -10 -9 -10 -9 0 -16 5 -16 10 0 6 4 10 9 10 6 0 13 -4 16 -10z m339
-26 c20 -14 20 -14 -6 -14 -14 0 -36 9 -49 21 l-24 20 29 -6 c16 -3 39 -13 50
-21z m-384 -14 c0 -5 -4 -10 -9 -10 -6 0 -13 5 -16 10 -3 6 1 10 9 10 9 0 16
-4 16 -10z m453 -18 c44 -23 72 -44 82 -61 9 -15 -44 13 -73 39 -9 8 -23 15
-31 15 -8 0 -16 6 -18 13 -6 16 1 15 40 -6z m-278 -112 c-3 -5 -12 -10 -18
-10 -7 0 -6 4 3 10 19 12 23 12 15 0z m438 -16 c12 -15 16 -32 12 -42 -6 -14
-9 -12 -16 11 -4 16 -13 35 -20 43 -6 8 -8 14 -3 14 5 0 17 -12 27 -26z m-143
-113 c0 -12 -20 -25 -27 -18 -7 7 6 27 18 27 5 0 9 -4 9 -9z m66 -38 c-10 -10
-19 5 -10 18 6 11 8 11 12 0 2 -7 1 -15 -2 -18z m71 1 c-3 -3 -12 -4 -19 -1
-8 3 -5 6 6 6 11 1 17 -2 13 -5z m21 -86 c33 11 72 6 72 -10 0 -6 -12 -8 -27
-5 -15 3 -35 0 -44 -6 -17 -11 -17 -13 3 -34 19 -20 19 -23 4 -29 -18 -7 -56
21 -56 41 0 15 -28 28 -42 19 -19 -12 -28 20 -11 38 14 16 17 16 43 -4 24 -17
33 -19 58 -10z m112 -38 c0 -5 -9 -10 -19 -10 -11 0 -23 5 -26 10 -4 6 5 10
19 10 14 0 26 -4 26 -10z m-33 -36 c-3 -3 -12 -4 -19 -1 -8 3 -5 6 6 6 11 1
17 -2 13 -5z"/>
<path d="M8575 7940 c-3 -5 -1 -10 4 -10 6 0 11 5 11 10 0 6 -2 10 -4 10 -3 0
-8 -4 -11 -10z"/>
<path d="M8545 7389 c-10 -15 3 -25 16 -12 7 7 7 13 1 17 -6 3 -14 1 -17 -5z"/>
<path d="M8555 7300 c3 -5 8 -10 11 -10 2 0 4 5 4 10 0 6 -5 10 -11 10 -5 0
-7 -4 -4 -10z"/>
<path d="M8530 7256 c0 -2 7 -7 16 -10 8 -3 12 -2 9 4 -6 10 -25 14 -25 6z"/>
<path d="M8586 7242 c-3 -5 4 -16 15 -26 20 -17 21 -16 34 1 7 10 11 21 9 25
-7 11 -52 10 -58 0z"/>
<path d="M8970 6832 c0 -5 -16 -16 -35 -25 -28 -13 -37 -14 -41 -4 -2 7 -20
14 -39 15 -30 2 -37 -2 -47 -25 -7 -15 -18 -31 -24 -35 -21 -14 -52 -75 -44
-88 9 -14 30 -5 30 13 0 14 39 41 47 33 5 -4 -3 -16 -35 -51 -11 -13 -11 -15
1 -15 8 0 20 7 27 15 7 8 18 15 25 15 16 0 27 -27 14 -35 -5 -4 -7 -11 -4 -16
4 -5 -1 -16 -10 -25 -14 -14 -12 -18 17 -38 23 -16 38 -20 50 -14 21 10 28 0
21 -35 -3 -16 -12 -27 -22 -27 -22 -1 27 -41 69 -57 30 -11 30 -11 30 23 0 19
-5 34 -10 34 -7 0 -7 6 0 19 5 11 10 33 10 50 0 24 -4 31 -20 31 -17 0 -18 -3
-9 -26 11 -31 8 -37 -14 -28 -41 15 -20 82 23 71 18 -4 19 2 19 114 1 99 -2
119 -14 119 -8 0 -15 -4 -15 -8z"/>
<path d="M7309 6066 c-19 -20 -26 -22 -43 -12 -12 6 -25 16 -29 21 -5 6 -7 3
-3 -7 3 -10 -1 -21 -8 -25 -13 -8 -24 -42 -31 -94 -1 -14 -9 -35 -16 -47 -12
-19 -11 -24 6 -37 20 -16 20 -16 -3 -12 -37 8 -22 -13 48 -68 39 -31 65 -45
68 -37 7 23 32 13 32 -13 0 -30 19 -32 43 -5 11 14 13 20 4 21 -6 1 -1 4 13 8
16 5 24 13 22 24 -2 10 4 17 13 17 8 0 15 5 15 10 0 16 30 12 48 -7 16 -15 15
-16 -12 -9 -27 7 -45 -4 -46 -26 0 -9 58 -28 86 -28 17 0 24 -6 24 -20 0 -22
1 -23 24 -14 9 3 16 15 16 25 0 20 -50 83 -58 74 -3 -3 -16 4 -28 16 -14 13
-30 19 -39 15 -22 -8 -55 11 -55 31 0 11 4 13 13 5 6 -5 28 -13 47 -17 44 -9
102 -38 120 -60 15 -18 14 -78 -1 -107 -5 -10 -18 -18 -29 -18 -14 0 -18 -5
-13 -17 4 -11 3 -14 -6 -9 -6 4 -18 3 -25 -4 -8 -6 -26 -8 -40 -4 -35 9 -33
-2 7 -26 49 -30 87 -26 133 15 28 25 34 34 22 35 -10 0 -18 -5 -18 -12 0 -18
-14 1 -15 21 -1 13 6 21 22 24 13 2 23 0 23 -4 0 -5 9 -9 20 -9 15 0 20 7 20
25 0 20 7 26 40 36 38 12 51 31 30 44 -5 3 -10 15 -10 26 0 13 -7 19 -24 19
-33 0 -53 25 -36 45 16 19 4 89 -13 81 -7 -3 -20 -9 -30 -12 -11 -4 -16 -13
-12 -24 3 -10 1 -21 -5 -25 -6 -4 -10 5 -11 22 0 16 -3 21 -6 13 -3 -8 -15
-23 -25 -34 -16 -15 -17 -20 -7 -27 10 -6 11 -11 3 -19 -8 -8 -14 -7 -24 5 -7
8 -18 15 -24 15 -6 1 -24 11 -40 24 -26 22 -27 24 -10 31 11 3 32 22 48 41 28
33 28 35 11 54 -10 11 -31 20 -46 20 -15 0 -31 5 -35 11 -3 6 -15 9 -25 6 -21
-6 -79 13 -79 25 0 15 -18 8 -41 -16z"/>
<path d="M7403 5735 c-3 -9 -4 -17 -2 -19 62 -47 81 -57 101 -54 22 4 22 5 4
13 -11 5 -33 24 -49 42 -32 37 -45 41 -54 18z"/>
<path d="M7810 5661 c0 -5 7 -15 17 -22 15 -13 15 -12 4 9 -12 23 -21 28 -21
13z"/>
<path d="M7051 5411 c-8 -6 -9 -11 -3 -15 6 -3 14 -1 17 5 9 14 2 20 -14 10z"/>
<path d="M2080 4680 c0 -6 -4 -9 -9 -5 -5 3 -12 1 -16 -5 -3 -5 3 -10 14 -10
23 0 36 16 21 25 -5 3 -10 1 -10 -5z"/>
<path d="M2550 4120 c-9 -6 -10 -10 -3 -10 6 0 15 5 18 10 8 12 4 12 -15 0z"/>
<path d="M40 4070 c0 -5 4 -10 9 -10 6 0 13 5 16 10 3 6 -1 10 -9 10 -9 0 -16
-4 -16 -10z"/>
<path d="M1761 4014 c0 -11 3 -14 6 -6 3 7 2 16 -1 19 -3 4 -6 -2 -5 -13z"/>
<path d="M428 3923 c6 -2 18 -2 25 0 6 3 1 5 -13 5 -14 0 -19 -2 -12 -5z"/>
<path d="M475 3910 c5 -9 2 -10 -14 -5 -12 4 -21 2 -21 -4 0 -6 11 -11 25 -11
26 0 33 14 13 26 -7 5 -8 3 -3 -6z"/>
<path d="M750 3860 c0 -6 7 -10 15 -10 8 0 15 2 15 4 0 2 -7 6 -15 10 -8 3
-15 1 -15 -4z"/>
<path d="M660 3850 c0 -6 7 -10 15 -10 8 0 15 2 15 4 0 2 -7 6 -15 10 -8 3
-15 1 -15 -4z"/>
<path d="M796 3822 c6 -4 15 -15 20 -24 7 -12 14 -14 24 -8 13 8 13 10 -1 10
-9 0 -19 7 -23 15 -3 8 -11 15 -18 15 -9 0 -9 -3 -2 -8z"/>
<path d="M760 3667 c0 -7 9 -20 20 -30 19 -16 20 -16 20 13 0 23 -4 30 -20 30
-11 0 -20 -6 -20 -13z"/>
<path d="M8992 3570 c0 -14 2 -19 5 -12 2 6 2 18 0 25 -3 6 -5 1 -5 -13z"/>
<path d="M8780 3549 c0 -5 5 -7 10 -4 6 3 10 8 10 11 0 2 -4 4 -10 4 -5 0 -10
-5 -10 -11z"/>
<path d="M1871 3328 c0 -50 3 -67 9 -53 12 28 12 125 0 125 -6 0 -10 -30 -9
-72z"/>
<path d="M1775 3250 c-3 -5 -1 -10 4 -10 6 0 11 5 11 10 0 6 -2 10 -4 10 -3 0
-8 -4 -11 -10z"/>
<path d="M1870 3188 c0 -25 3 -29 10 -18 13 20 13 50 0 50 -5 0 -10 -15 -10
-32z"/>
<path d="M1650 3176 c0 -8 4 -17 9 -20 5 -4 7 3 4 14 -6 23 -13 26 -13 6z"/>
<path d="M1155 3159 c7 -11 35 -12 35 -1 0 4 -9 8 -20 9 -11 1 -18 -2 -15 -8z"/>
<path d="M1860 3060 c0 -11 5 -20 10 -20 6 0 10 9 10 20 0 11 -4 20 -10 20 -5
0 -10 -9 -10 -20z"/>
<path d="M184 2987 c-9 -25 3 -47 26 -47 25 0 26 15 0 42 -17 19 -20 19 -26 5z"/>
<path d="M1367 2981 c-4 -17 -3 -21 5 -13 5 5 8 16 6 23 -3 8 -7 3 -11 -10z"/>
<path d="M1851 2984 c0 -11 3 -14 6 -6 3 7 2 16 -1 19 -3 4 -6 -2 -5 -13z"/>
<path d="M1834 2936 c-3 -14 -4 -33 -1 -43 4 -15 5 -14 6 4 0 12 6 25 11 28
13 8 13 35 0 35 -5 0 -12 -11 -16 -24z"/>
<path d="M1320 2904 c0 -16 9 -18 28 -5 10 6 9 10 -7 14 -14 3 -21 0 -21 -9z"/>
<path d="M1390 2880 c0 -5 5 -10 10 -10 6 0 10 5 10 10 0 6 -4 10 -10 10 -5 0
-10 -4 -10 -10z"/>
<path d="M1375 2850 c-4 -6 -10 -8 -15 -5 -5 3 -12 0 -16 -6 -4 -7 -3 -9 3 -6
6 4 19 -3 29 -14 17 -19 19 -19 25 -2 11 32 -10 59 -26 33z"/>
<path d="M1811 2837 c-2 -28 -32 -117 -42 -123 -13 -8 -11 -21 4 -27 8 -3 14
1 14 8 0 7 8 38 17 69 10 30 16 63 13 73 -4 17 -5 17 -6 0z"/>
<path d="M1228 2793 c6 -2 18 -2 25 0 6 3 1 5 -13 5 -14 0 -19 -2 -12 -5z"/>
<path d="M545 2730 c-3 -5 1 -10 10 -10 9 0 13 5 10 10 -3 6 -8 10 -10 10 -2
0 -7 -4 -10 -10z"/>
<path d="M8340 2715 c7 -9 15 -13 17 -11 7 7 -7 26 -19 26 -6 0 -6 -6 2 -15z"/>
<path d="M1616 2711 c-4 -5 -2 -12 3 -15 5 -4 12 -2 15 3 4 5 2 12 -3 15 -5 4
-12 2 -15 -3z"/>
<path d="M1429 2658 c-16 -18 -29 -36 -29 -40 0 -5 -7 -8 -17 -8 -9 0 -13 -3
-9 -7 9 -10 -84 -93 -105 -93 -9 0 -24 -11 -33 -25 -9 -14 -21 -23 -26 -20 -6
4 -10 0 -10 -8 0 -7 -11 -20 -25 -27 -25 -13 -33 -30 -15 -30 6 0 10 4 10 9 0
5 16 15 35 21 19 6 35 18 35 26 0 8 7 14 15 14 14 0 50 28 107 83 10 9 23 17
28 17 6 0 20 16 31 35 12 19 25 35 29 35 4 0 15 11 24 25 15 23 15 25 1 25 -9
0 -29 -15 -46 -32z"/>
<path d="M1587 2672 c-10 -10 -17 -23 -17 -29 0 -6 -7 -16 -15 -23 -8 -7 -15
-18 -15 -24 0 -11 25 16 57 62 20 28 12 39 -10 14z"/>
<path d="M1276 2647 c3 -10 9 -15 12 -12 3 3 0 11 -7 18 -10 9 -11 8 -5 -6z"/>
<path d="M1625 2630 c-3 -5 -1 -10 4 -10 6 0 11 5 11 10 0 6 -2 10 -4 10 -3 0
-8 -4 -11 -10z"/>
<path d="M1750 2599 c0 -5 5 -7 10 -4 6 3 10 8 10 11 0 2 -4 4 -10 4 -5 0 -10
-5 -10 -11z"/>
<path d="M1593 2585 c-9 -24 1 -27 15 -5 8 13 8 20 2 20 -6 0 -13 -7 -17 -15z"/>
<path d="M560 2560 c0 -5 5 -10 10 -10 6 0 10 5 10 10 0 6 -4 10 -10 10 -5 0
-10 -4 -10 -10z"/>
<path d="M5940 2560 c0 -5 5 -10 11 -10 5 0 7 5 4 10 -3 6 -8 10 -11 10 -2 0
-4 -4 -4 -10z"/>
<path d="M8580 2540 c0 -6 9 -20 20 -32 11 -12 20 -27 20 -33 0 -7 7 -12 15
-12 22 0 19 8 -20 50 -19 21 -35 33 -35 27z"/>
<path d="M638 2527 c7 -8 8 -18 4 -22 -4 -5 -1 -5 6 -1 17 10 15 23 -4 30 -13
5 -14 4 -6 -7z"/>
<path d="M1540 2526 c0 -7 -15 -25 -32 -39 -18 -14 -49 -39 -68 -56 -19 -17
-41 -31 -47 -31 -7 0 -13 -5 -13 -11 0 -5 -13 -15 -30 -20 -16 -6 -30 -18 -30
-27 0 -13 2 -13 18 0 9 8 29 19 45 26 15 6 27 16 27 21 0 5 10 11 23 13 12 2
21 9 20 16 -2 6 1 12 7 12 11 0 110 94 110 104 0 3 -7 6 -15 6 -8 0 -15 -6
-15 -14z"/>
<path d="M5900 2500 c0 -5 5 -10 11 -10 5 0 7 5 4 10 -3 6 -8 10 -11 10 -2 0
-4 -4 -4 -10z"/>
<path d="M643 2462 c-1 -10 5 -19 12 -19 10 0 11 5 4 19 -5 10 -11 18 -12 18
-2 0 -3 -8 -4 -18z"/>
<path d="M1553 2450 c-11 -16 -10 -18 1 -14 15 6 30 34 18 34 -4 0 -13 -9 -19
-20z"/>
<path d="M8675 2430 c10 -11 20 -20 23 -20 3 0 -3 9 -13 20 -10 11 -20 20 -23
20 -3 0 3 -9 13 -20z"/>
<path d="M472 2420 c12 -18 38 -28 38 -14 0 10 -28 34 -39 34 -8 0 -7 -7 1
-20z"/>
<path d="M705 2430 c3 -5 8 -10 11 -10 2 0 4 5 4 10 0 6 -5 10 -11 10 -5 0 -7
-4 -4 -10z"/>
<path d="M8600 2390 c-8 -5 -12 -10 -10 -12 47 -30 61 -29 37 4 -9 11 -18 14
-27 8z"/>
<path d="M1470 2380 c0 -5 -7 -10 -17 -10 -9 0 -13 -3 -10 -7 4 -3 -10 -14
-31 -24 -45 -21 -101 -69 -81 -69 8 0 38 16 66 35 29 19 58 35 64 35 12 0 38
29 39 43 0 4 -7 7 -15 7 -8 0 -15 -4 -15 -10z"/>
<path d="M640 2357 c0 -16 3 -17 15 -7 8 7 22 10 30 6 8 -3 15 -2 15 3 0 5
-13 11 -30 13 -25 4 -30 1 -30 -15z"/>
<path d="M1150 2370 c-12 -8 -10 -10 8 -10 13 0 20 4 17 10 -7 12 -6 12 -25 0z"/>
<path d="M593 2346 c33 -31 52 -34 35 -6 -7 11 -16 20 -20 20 -3 0 -15 3 -25
6 -12 4 -9 -2 10 -20z"/>
<path d="M8728 2363 c-29 -7 -21 -33 10 -32 23 0 24 2 7 8 -19 8 -19 8 0 19
20 12 14 13 -17 5z"/>
<path d="M1070 2344 c-19 -7 -45 -13 -57 -13 -13 -1 -23 -5 -23 -10 0 -5 -8
-12 -17 -15 -10 -3 0 -3 22 -2 45 4 135 36 135 48 0 11 -18 8 -60 -8z"/>
<path d="M6111 2203 c-7 -76 -16 -156 -21 -178 -5 -22 -16 -76 -25 -121 -10
-45 -15 -87 -12 -95 3 -8 6 -3 6 12 1 14 5 29 9 35 14 15 50 142 68 239 10 57
14 113 10 153 -10 113 -21 98 -35 -45z"/>
<path d="M868 2293 c7 -3 16 -2 19 1 4 3 -2 6 -13 5 -11 0 -14 -3 -6 -6z"/>
<path d="M8800 2300 c-8 -37 -9 -50 -1 -46 11 7 25 -23 22 -43 -2 -8 4 -20 12
-25 7 -6 22 -26 31 -44 9 -18 21 -30 26 -27 6 4 5 14 -2 25 -9 14 -9 25 1 46
11 25 11 26 -4 14 -13 -11 -18 -10 -29 5 -7 10 -11 27 -8 38 3 14 1 18 -6 13
-7 -4 -12 -3 -12 1 0 10 -29 51 -30 43z"/>
<path d="M8881 2278 c-6 -17 -5 -24 5 -26 8 -2 14 -10 14 -18 0 -8 5 -14 10
-14 14 0 12 11 -5 34 -11 14 -12 23 -4 33 9 9 8 13 0 13 -6 0 -15 -10 -20 -22z"/>
<path d="M8930 2161 c0 -10 7 -21 15 -25 11 -4 15 1 15 19 0 16 -6 25 -15 25
-8 0 -15 -9 -15 -19z"/>
<path d="M8800 2133 c0 -27 34 -86 75 -130 16 -18 48 -53 70 -78 22 -25 43
-45 47 -45 20 0 4 35 -34 73 -73 74 -98 103 -98 115 0 5 -3 12 -8 14 -4 2 -17
19 -30 38 -18 30 -22 32 -22 13z"/>
<path d="M1258 2133 c7 -3 16 -2 19 1 4 3 -2 6 -13 5 -11 0 -14 -3 -6 -6z"/>
<path d="M8937 2119 c7 -7 15 -10 18 -7 3 3 -2 9 -12 12 -14 6 -15 5 -6 -5z"/>
<path d="M1324 2072 c-21 -15 -50 -32 -64 -38 -79 -35 -84 -39 -63 -42 11 -2
47 13 79 32 33 20 63 36 67 36 10 0 37 26 37 34 0 12 -18 5 -56 -22z"/>
<path d="M8906 2078 c6 -22 37 -58 49 -58 4 0 -3 13 -14 29 -12 16 -21 34 -21
40 0 6 -5 11 -11 11 -6 0 -8 -9 -3 -22z"/>
<path d="M1220 1942 c0 -5 -12 -15 -27 -22 -19 -8 -23 -14 -14 -18 7 -2 16 0
20 5 3 5 17 17 31 26 19 13 21 17 7 17 -9 0 -17 -4 -17 -8z"/>
<path d="M5512 1808 c-7 -7 -12 -16 -12 -21 0 -5 7 -1 16 8 9 9 14 18 12 20
-2 3 -10 -1 -16 -7z"/>
<path d="M5460 1788 c0 -9 -6 -19 -12 -21 -10 -4 -10 -6 0 -6 14 -1 28 26 18
36 -3 4 -6 -1 -6 -9z"/>
<path d="M6031 1764 c0 -11 3 -14 6 -6 3 7 2 16 -1 19 -3 4 -6 -2 -5 -13z"/>
<path d="M5422 1740 c0 -14 2 -19 5 -12 2 6 2 18 0 25 -3 6 -5 1 -5 -13z"/>
<path d="M5367 1731 c-3 -14 -1 -18 9 -14 8 3 14 11 14 19 0 21 -17 17 -23 -5z"/>
<path d="M5430 1690 c-14 -22 -26 -36 -28 -30 -5 14 -22 12 -22 -3 0 -7 -9
-13 -20 -14 -11 -1 -20 2 -20 8 0 5 5 9 10 9 6 0 10 8 10 17 0 14 -3 14 -20
-5 -11 -12 -20 -28 -20 -37 0 -9 -4 -13 -10 -10 -6 3 -7 -1 -4 -9 3 -9 10 -16
16 -16 5 0 6 5 3 10 -3 6 1 10 9 10 19 0 31 -19 29 -45 -1 -16 -1 -16 3 -2 3
9 10 17 15 17 5 0 9 10 9 22 0 12 3 18 6 15 8 -8 66 81 62 94 -2 5 -14 -9 -28
-31z"/>
<path d="M3400 1678 c0 -3 7 -19 15 -34 8 -16 15 -22 15 -14 -1 8 -7 24 -15
34 -8 11 -15 17 -15 14z"/>
<path d="M3555 1610 c-3 -5 1 -10 9 -10 9 0 16 5 16 10 0 6 -4 10 -9 10 -6 0
-13 -4 -16 -10z"/>
<path d="M3435 1600 c3 -5 8 -10 11 -10 2 0 4 5 4 10 0 6 -5 10 -11 10 -5 0
-7 -4 -4 -10z"/>
<path d="M3470 1535 c0 -8 2 -15 4 -15 2 0 6 7 10 15 3 8 1 15 -4 15 -6 0 -10
-7 -10 -15z"/>
<path d="M3490 1497 c0 -7 7 -22 16 -33 14 -17 15 -17 10 -1 -3 10 -6 25 -6
33 0 8 -4 14 -10 14 -5 0 -10 -6 -10 -13z"/>
<path d="M3665 1478 c-2 -7 0 -29 4 -48 l9 -35 1 48 c1 45 -5 60 -14 35z"/>
<path d="M3520 1430 c0 -5 5 -10 10 -10 6 0 10 5 10 10 0 6 -4 10 -10 10 -5 0
-10 -4 -10 -10z"/>
<path d="M5975 1420 c-3 -5 -1 -10 4 -10 6 0 11 5 11 10 0 6 -2 10 -4 10 -3 0
-8 -4 -11 -10z"/>
<path d="M3540 1395 c0 -8 2 -15 4 -15 2 0 6 7 10 15 3 8 1 15 -4 15 -6 0 -10
-7 -10 -15z"/>
<path d="M3637 1393 c-4 -3 -7 -11 -7 -17 0 -6 5 -5 12 2 6 6 9 14 7 17 -3 3
-9 2 -12 -2z"/>
<path d="M3560 1364 c0 -8 5 -12 10 -9 6 4 8 11 5 16 -9 14 -15 11 -15 -7z"/>
<path d="M5910 1338 c-145 -178 -334 -353 -525 -487 -32 -23 -52 -41 -43 -41
8 0 23 9 33 20 10 11 23 20 29 21 6 0 31 16 56 35 25 18 77 56 115 83 68 47
203 180 275 270 19 24 50 61 68 83 27 34 40 58 29 58 -1 0 -18 -19 -37 -42z"/>
<path d="M3655 1340 c-3 -5 1 -10 10 -10 9 0 13 5 10 10 -3 6 -8 10 -10 10 -2
0 -7 -4 -10 -10z"/>
<path d="M5046 1335 c4 -8 8 -15 10 -15 2 0 4 7 4 15 0 8 -4 15 -10 15 -5 0
-7 -7 -4 -15z"/>
<path d="M3575 1330 c3 -8 8 -23 11 -32 4 -11 16 -18 30 -18 25 0 30 15 14 40
-8 13 -10 12 -10 -2 0 -25 -14 -22 -34 5 -9 12 -14 15 -11 7z"/>
<path d="M3650 1308 c0 -10 23 -15 43 -10 28 7 19 21 -13 19 -16 -1 -30 -5
-30 -9z"/>
<path d="M5011 1289 c-10 -22 -10 -34 -2 -42 14 -14 17 -10 25 36 8 45 -4 49
-23 6z"/>
<path d="M3727 1270 c3 -12 1 -25 -5 -29 -7 -4 -5 -13 5 -26 15 -20 15 -20 10
3 -3 12 -1 22 5 22 13 0 6 43 -9 47 -7 3 -9 -3 -6 -17z"/>
<path d="M3701 1264 c0 -11 3 -14 6 -6 3 7 2 16 -1 19 -3 4 -6 -2 -5 -13z"/>
<path d="M230 1101 c0 -6 4 -13 10 -16 6 -3 7 1 4 9 -7 18 -14 21 -14 7z"/>
<path d="M65 1050 c-3 -5 -1 -10 4 -10 6 0 11 5 11 10 0 6 -2 10 -4 10 -3 0
-8 -4 -11 -10z"/>
<path d="M3402 721 c2 -7 7 -12 11 -12 12 1 9 15 -3 20 -7 2 -11 -2 -8 -8z"/>
<path d="M3421 670 c-8 -4 -20 -6 -28 -3 -23 9 -14 -12 10 -22 13 -6 21 -17
19 -27 -2 -12 2 -16 13 -12 16 6 20 41 7 61 -5 7 -13 9 -21 3z"/>
<path d="M10 450 c0 -5 5 -10 10 -10 6 0 10 5 10 10 0 6 -4 10 -10 10 -5 0
-10 -4 -10 -10z"/>
<path d="M4660 288 c-16 -7 -20 -12 -12 -15 8 -3 21 2 30 11 19 18 17 19 -18
4z"/>
<path d="M5276 15 c-3 -8 -1 -15 4 -15 6 0 10 7 10 15 0 19 -6 19 -14 0z"/>
</g>
</svg>
