<svg xmlns="http://www.w3.org/2000/svg" width="830.53" height="830.53" viewBox="0 0 830.53 830.53"><path d="M414.28,763.84c-11.51-8-24-14.37-36.06-21.41q-59.4-34.56-119-68.81-69.9-40.36-139.88-80.57c-4.72-2.7-6.36-5.67-6.35-11q.21-167.23,0-334.49c0-5.67,1.63-8.84,6.74-11.77q82.59-47.35,164.86-95.26C325.7,116.74,366.83,93,407.79,69c5.47-3.2,9.64-3.08,15.06.06q105.89,61.47,212,122.59c25.81,14.93,51.51,30.05,77.4,44.82,3.9,2.23,5.25,4.69,5.23,9.06q-.19,76.5-.08,153c0,60.66-.1,121.33.14,182,0,6.18-1.93,9.5-7.26,12.55Q638.68,634,567.37,675.47q-74.61,43.17-149.18,86.44c-1,.58-1.94,1.29-2.91,1.93ZM149.44,414.32q0,73.47-.09,147c0,4.67,1.2,7.53,5.49,10,33.55,19.16,66.94,38.61,100.39,57.94q77.45,44.74,154.85,89.53c3.62,2.09,6.29,2.17,10,0,33.07-19.33,66.28-38.42,99.43-57.61,51.6-29.86,103.14-59.84,154.87-89.48,5.3-3,6.83-6.38,6.82-12.2q-.24-144.45.12-288.92c0-7.44-2.5-11.16-8.67-14.71Q550.25,185.47,428.13,114.7c-15.76-9.11-10.18-9-26,.1-40.58,23.3-81,46.9-121.51,70.34q-62.91,36.42-125.92,72.69c-4.09,2.34-5.34,5-5.33,9.52Q149.56,340.83,149.44,414.32Z"/><path d="M327.12,414.87q0-106-.11-212c0-5.22,1.75-8.11,6.15-10.67,25.49-14.81,50.93-29.72,76.13-45,5.33-3.23,9.17-3.13,14.43,0q49.32,29.47,99,58.32c3.72,2.17,4.51,3.9,1.88,7.66-5.64,8-11,16.28-16.09,24.7-2.33,3.88-4.27,4-7.9,1.79-26.62-16.18-53.39-32.12-80-48.3-3.14-1.91-5.4-1.93-8.61-.11q-21.94,12.45-44.23,24.31c-3.23,1.73-4.46,3.8-4.46,7.44q.14,81,0,162c0,5.24,2.31,5.95,6.67,5.93q60-.15,120-.06c7.52,0,7.54,0,7.55,7.47q0,15.24,0,30.5c0,7.09,0,7.11-7.34,7.11q-59.23,0-118.48,0c-8.28,0-8.29,0-8.29,8.09q0,103,0,206c0,1.8.81,4.27-.66,5.24-1.89,1.24-3.63-1-5.22-2-8.44-5.36-16.68-11-25.21-16.23-3.89-2.36-5.28-5.18-5.27-9.72Q327.23,521.1,327.12,414.87Z"/><path d="M256.17,416.76v-5.37c0-53.49.08-107-.13-160.47,0-5.84,1.38-9.42,6.87-12.22,9.63-4.91,18.84-10.67,28.12-16.24,3.41-2,4.5-1.54,4.47,2.54-.13,16.83-.06,33.66-.06,50.49q0,165.72,0,331.44c0,1.5-.05,3,0,4.49.11,3.47-.91,4.76-4.35,2.69q-9.86-5.91-19.88-11.55a9.26,9.26,0,0,1-4.63-6.14q-12.79-48.82-25.67-97.61c-9.24-34.92-18.53-69.82-28.49-104.7v165.6c0,1.5,0,3,0,4.5,0,2.83-1.18,3.7-3.72,2.23-8.52-4.9-17-9.86-25.54-14.72-2.81-1.6-2.94-4.16-2.94-6.9q0-25.5,0-51,0-96.24-.09-192.47c0-4.93,1.29-8,5.75-10.36,8-4.17,15.75-8.7,23.41-13.4,3.58-2.2,4.92-1.09,5.94,2.44,5.4,18.73,10.91,37.42,16.37,56.12q11.76,40.29,23.51,80.56Z"/><path d="M571.3,441.84c0-51-.07-102,.1-153,0-4.94-1.48-7.9-5.72-10.49-12.5-7.64-24.68-15.82-37.13-23.56-3.79-2.37-4.52-4.42-1.86-8.32,5-7.28,9.54-14.86,14-22.45,1.79-3,3.19-3.84,6.56-1.69q55.43,35.31,111.07,70.25c2.93,1.84,4.09,3.91,4,7.27-.13,11.17,0,22.33-.08,33.49,0,1.57.72,3.66-1.15,4.51-1.53.7-2.73-.88-3.92-1.69-13.23-9-26.41-18.05-39.66-27-1.71-1.16-3.51-3.64-5.48-2.62-1.65.86-.67,3.69-.67,5.62q0,130.47.09,260.94c0,5.19-1.56,8.23-6.08,10.66-9.69,5.2-19.1,10.9-28.66,16.32-4.92,2.79-5.45,2.48-5.46-3.3q-.06-40.74,0-81.48,0-36.75,0-73.49Z"/></svg>